<svg width="159" height="30" viewBox="0 0 159 30" fill="none" xmlns="http://www.w3.org/2000/svg">
<path d="M8.952 23.448C7.26667 23.448 5.77333 23.1493 4.472 22.552C3.17067 21.9547 2.14667 21.08 1.4 19.928C0.674667 18.7547 0.312 17.336 0.312 15.672V14.872H3.736V15.672C3.736 17.2507 4.20533 18.4347 5.144 19.224C6.104 20.0133 7.37333 20.408 8.952 20.408C10.552 20.408 11.7573 20.0773 12.568 19.416C13.3787 18.7333 13.784 17.8587 13.784 16.792C13.784 16.088 13.592 15.512 13.208 15.064C12.824 14.616 12.28 14.264 11.576 14.008C10.872 13.7307 10.0293 13.4747 9.048 13.24L7.864 12.952C6.43467 12.6107 5.18667 12.1947 4.12 11.704C3.07467 11.192 2.264 10.52 1.688 9.688C1.112 8.856 0.824 7.78933 0.824 6.488C0.824 5.16533 1.144 4.03467 1.784 3.096C2.44533 2.15733 3.352 1.432 4.504 0.919998C5.656 0.407998 7.01067 0.151999 8.568 0.151999C10.1253 0.151999 11.512 0.418666 12.728 0.952C13.9653 1.48533 14.936 2.27467 15.64 3.32C16.344 4.36533 16.696 5.67733 16.696 7.256V8.408H13.272V7.256C13.272 6.296 13.0693 5.51733 12.664 4.92C12.28 4.32267 11.736 3.88533 11.032 3.608C10.328 3.33067 9.50667 3.192 8.568 3.192C7.20267 3.192 6.136 3.48 5.368 4.056C4.62133 4.61067 4.248 5.38933 4.248 6.392C4.248 7.07467 4.408 7.64 4.728 8.088C5.06933 8.51467 5.56 8.86667 6.2 9.144C6.84 9.42133 7.64 9.66667 8.6 9.88L9.784 10.168C11.2347 10.488 12.5147 10.904 13.624 11.416C14.7333 11.9067 15.608 12.5787 16.248 13.432C16.888 14.2853 17.208 15.384 17.208 16.728C17.208 18.072 16.8667 19.2453 16.184 20.248C15.5227 21.2507 14.5733 22.04 13.336 22.616C12.0987 23.1707 10.6373 23.448 8.952 23.448ZM28.164 23.448C26.564 23.448 25.1667 23.1173 23.972 22.456C22.7773 21.7733 21.8387 20.824 21.156 19.608C20.4947 18.3707 20.164 16.9413 20.164 15.32V14.936C20.164 13.2933 20.4947 11.864 21.156 10.648C21.8173 9.41067 22.7347 8.46133 23.908 7.8C25.1027 7.11733 26.4787 6.776 28.036 6.776C29.5507 6.776 30.8733 7.11733 32.004 7.8C33.156 8.46133 34.052 9.38933 34.692 10.584C35.332 11.7787 35.652 13.176 35.652 14.776V16.024H23.524C23.5667 17.4107 24.0253 18.52 24.9 19.352C25.796 20.1627 26.9053 20.568 28.228 20.568C29.4653 20.568 30.3933 20.2907 31.012 19.736C31.652 19.1813 32.1427 18.5413 32.484 17.816L35.204 19.224C34.9053 19.8213 34.468 20.4507 33.892 21.112C33.3373 21.7733 32.6013 22.328 31.684 22.776C30.7667 23.224 29.5933 23.448 28.164 23.448ZM23.556 13.496H32.292C32.2067 12.3013 31.78 11.3733 31.012 10.712C30.244 10.0293 29.2413 9.688 28.004 9.688C26.7667 9.688 25.7533 10.0293 24.964 10.712C24.196 11.3733 23.7267 12.3013 23.556 13.496ZM39.6195 23V7.224H42.8515V9.592H43.3635C43.6622 8.952 44.1955 8.35467 44.9635 7.8C45.7315 7.24533 46.8728 6.968 48.3875 6.968C49.5822 6.968 50.6382 7.23467 51.5555 7.768C52.4942 8.30133 53.2302 9.05867 53.7635 10.04C54.2968 11 54.5635 12.1627 54.5635 13.528V23H51.2675V13.784C51.2675 12.4187 50.9262 11.416 50.2435 10.776C49.5608 10.1147 48.6222 9.784 47.4275 9.784C46.0622 9.784 44.9635 10.232 44.1315 11.128C43.3208 12.024 42.9155 13.3253 42.9155 15.032V23H39.6195ZM65.835 23.448C64.5337 23.448 63.3283 23.128 62.219 22.488C61.1097 21.848 60.2137 20.9307 59.531 19.736C58.8697 18.52 58.539 17.0587 58.539 15.352V14.872C58.539 13.1867 58.8697 11.736 59.531 10.52C60.1923 9.304 61.0777 8.376 62.187 7.736C63.2963 7.096 64.5123 6.776 65.835 6.776C66.859 6.776 67.7123 6.904 68.395 7.16C69.099 7.416 69.675 7.74667 70.123 8.152C70.571 8.536 70.9123 8.94133 71.147 9.368H71.659V0.599998H74.955V23H71.723V20.76H71.211C70.8057 21.4427 70.187 22.0613 69.355 22.616C68.5443 23.1707 67.371 23.448 65.835 23.448ZM66.763 20.568C68.1923 20.568 69.3657 20.1093 70.283 19.192C71.2217 18.2747 71.691 16.9627 71.691 15.256V14.968C71.691 13.2827 71.2323 11.9813 70.315 11.064C69.3977 10.1467 68.2137 9.688 66.763 9.688C65.355 9.688 64.1817 10.1467 63.243 11.064C62.3257 11.9813 61.867 13.2827 61.867 14.968V15.256C61.867 16.9627 62.3257 18.2747 63.243 19.192C64.1817 20.1093 65.355 20.568 66.763 20.568ZM79.711 23V0.599998H89.119C90.5057 0.599998 91.7217 0.845332 92.767 1.336C93.8337 1.80533 94.655 2.488 95.231 3.384C95.8283 4.28 96.127 5.34667 96.127 6.584V6.936C96.127 8.344 95.7857 9.47467 95.103 10.328C94.4417 11.16 93.631 11.7467 92.671 12.088V12.6C93.4817 12.6427 94.1323 12.92 94.623 13.432C95.1137 13.9227 95.359 14.6373 95.359 15.576V23H91.871V16.056C91.871 15.48 91.7217 15.0213 91.423 14.68C91.1243 14.3387 90.6443 14.168 89.983 14.168H83.167V23H79.711ZM83.167 11.032H88.735C89.9723 11.032 90.9323 10.7227 91.615 10.104C92.2977 9.464 92.639 8.6 92.639 7.512V7.256C92.639 6.168 92.2977 5.31467 91.615 4.696C90.9537 4.056 89.9937 3.736 88.735 3.736H83.167V11.032ZM100.026 23V7.224H103.322V23H100.026ZM101.69 5.08C101.05 5.08 100.506 4.87733 100.058 4.472C99.6311 4.04533 99.4178 3.50133 99.4178 2.84C99.4178 2.17867 99.6311 1.64533 100.058 1.24C100.506 0.813332 101.05 0.599998 101.69 0.599998C102.351 0.599998 102.895 0.813332 103.322 1.24C103.748 1.64533 103.962 2.17867 103.962 2.84C103.962 3.50133 103.748 4.04533 103.322 4.472C102.895 4.87733 102.351 5.08 101.69 5.08ZM107.445 15.192V14.712C107.445 13.048 107.776 11.6293 108.437 10.456C109.12 9.28267 110.016 8.376 111.125 7.736C112.235 7.096 113.451 6.776 114.773 6.776C116.309 6.776 117.483 7.064 118.293 7.64C119.125 8.216 119.733 8.83467 120.117 9.496H120.629V7.224H123.829V26.232C123.829 27.192 123.541 27.96 122.965 28.536C122.411 29.112 121.643 29.4 120.661 29.4H110.037V26.52H119.637C120.256 26.52 120.565 26.2 120.565 25.56V20.536H120.053C119.819 20.92 119.488 21.3147 119.061 21.72C118.635 22.1253 118.069 22.456 117.365 22.712C116.683 22.968 115.819 23.096 114.773 23.096C113.451 23.096 112.224 22.7867 111.093 22.168C109.984 21.528 109.099 20.6213 108.437 19.448C107.776 18.2533 107.445 16.8347 107.445 15.192ZM115.669 20.216C117.099 20.216 118.272 19.768 119.189 18.872C120.128 17.9547 120.597 16.696 120.597 15.096V14.808C120.597 13.1653 120.139 11.9067 119.221 11.032C118.304 10.136 117.12 9.688 115.669 9.688C114.261 9.688 113.088 10.136 112.149 11.032C111.232 11.9067 110.773 13.1653 110.773 14.808V15.096C110.773 16.696 111.232 17.9547 112.149 18.872C113.088 19.768 114.261 20.216 115.669 20.216ZM128.682 23V0.599998H131.978V9.464H132.49C132.703 9.05867 133.002 8.664 133.386 8.28C133.791 7.896 134.314 7.58667 134.954 7.352C135.615 7.096 136.447 6.968 137.45 6.968C138.645 6.968 139.701 7.23467 140.618 7.768C141.557 8.30133 142.293 9.05867 142.826 10.04C143.359 11 143.626 12.1627 143.626 13.528V23H140.33V13.784C140.33 12.4187 139.989 11.416 139.306 10.776C138.623 10.1147 137.685 9.784 136.49 9.784C135.125 9.784 134.026 10.232 133.194 11.128C132.383 12.024 131.978 13.3253 131.978 15.032V23H128.682ZM153.852 23C152.892 23 152.124 22.712 151.548 22.136C150.993 21.56 150.716 20.792 150.716 19.832V10.008H146.364V7.224H150.716V2.008H154.012V7.224H158.716V10.008H154.012V19.256C154.012 19.896 154.311 20.216 154.908 20.216H158.204V23H153.852Z" fill="#0867D0"/>
</svg>
