<svg width="100" height="19" viewBox="0 0 100 19" fill="none" xmlns="http://www.w3.org/2000/svg">
<path d="M6.22 15.28C5.16667 15.28 4.23333 15.0933 3.42 14.72C2.60667 14.3467 1.96667 13.8 1.5 13.08C1.04667 12.3467 0.82 11.46 0.82 10.42V9.92H2.96V10.42C2.96 11.4067 3.25333 12.1467 3.84 12.64C4.44 13.1333 5.23333 13.38 6.22 13.38C7.22 13.38 7.97333 13.1733 8.48 12.76C8.98667 12.3333 9.24 11.7867 9.24 11.12C9.24 10.68 9.12 10.32 8.88 10.04C8.64 9.76 8.3 9.54 7.86 9.38C7.42 9.20667 6.89333 9.04667 6.28 8.9L5.54 8.72C4.64667 8.50667 3.86667 8.24667 3.2 7.94C2.54667 7.62 2.04 7.2 1.68 6.68C1.32 6.16 1.14 5.49333 1.14 4.68C1.14 3.85333 1.34 3.14667 1.74 2.56C2.15333 1.97333 2.72 1.52 3.44 1.2C4.16 0.879999 5.00667 0.719999 5.98 0.719999C6.95333 0.719999 7.82 0.886666 8.58 1.22C9.35333 1.55333 9.96 2.04667 10.4 2.7C10.84 3.35333 11.06 4.17333 11.06 5.16V5.88H8.92V5.16C8.92 4.56 8.79333 4.07333 8.54 3.7C8.3 3.32667 7.96 3.05333 7.52 2.88C7.08 2.70667 6.56667 2.62 5.98 2.62C5.12667 2.62 4.46 2.8 3.98 3.16C3.51333 3.50667 3.28 3.99333 3.28 4.62C3.28 5.04667 3.38 5.4 3.58 5.68C3.79333 5.94667 4.1 6.16667 4.5 6.34C4.9 6.51333 5.4 6.66667 6 6.8L6.74 6.98C7.64667 7.18 8.44667 7.44 9.14 7.76C9.83333 8.06667 10.38 8.48667 10.78 9.02C11.18 9.55333 11.38 10.24 11.38 11.08C11.38 11.92 11.1667 12.6533 10.74 13.28C10.3267 13.9067 9.73333 14.4 8.96 14.76C8.18667 15.1067 7.27333 15.28 6.22 15.28ZM18.2275 15.28C17.2275 15.28 16.3542 15.0733 15.6075 14.66C14.8608 14.2333 14.2742 13.64 13.8475 12.88C13.4342 12.1067 13.2275 11.2133 13.2275 10.2V9.96C13.2275 8.93333 13.4342 8.04 13.8475 7.28C14.2608 6.50667 14.8342 5.91333 15.5675 5.5C16.3142 5.07333 17.1742 4.86 18.1475 4.86C19.0942 4.86 19.9208 5.07333 20.6275 5.5C21.3475 5.91333 21.9075 6.49333 22.3075 7.24C22.7075 7.98667 22.9075 8.86 22.9075 9.86V10.64H15.3275C15.3542 11.5067 15.6408 12.2 16.1875 12.72C16.7475 13.2267 17.4408 13.48 18.2675 13.48C19.0408 13.48 19.6208 13.3067 20.0075 12.96C20.4075 12.6133 20.7142 12.2133 20.9275 11.76L22.6275 12.64C22.4408 13.0133 22.1675 13.4067 21.8075 13.82C21.4608 14.2333 21.0008 14.58 20.4275 14.86C19.8542 15.14 19.1208 15.28 18.2275 15.28ZM15.3475 9.06H20.8075C20.7542 8.31333 20.4875 7.73333 20.0075 7.32C19.5275 6.89333 18.9008 6.68 18.1275 6.68C17.3542 6.68 16.7208 6.89333 16.2275 7.32C15.7475 7.73333 15.4542 8.31333 15.3475 9.06ZM25.3872 15V5.14H27.4072V6.62H27.7272C27.9139 6.22 28.2472 5.84667 28.7272 5.5C29.2072 5.15333 29.9205 4.98 30.8672 4.98C31.6139 4.98 32.2739 5.14667 32.8472 5.48C33.4339 5.81333 33.8939 6.28667 34.2272 6.9C34.5605 7.5 34.7272 8.22667 34.7272 9.08V15H32.6672V9.24C32.6672 8.38667 32.4539 7.76 32.0272 7.36C31.6005 6.94667 31.0139 6.74 30.2672 6.74C29.4139 6.74 28.7272 7.02 28.2072 7.58C27.7005 8.14 27.4472 8.95333 27.4472 10.02V15H25.3872ZM41.7719 15.28C40.9585 15.28 40.2052 15.08 39.5119 14.68C38.8185 14.28 38.2585 13.7067 37.8319 12.96C37.4185 12.2 37.2119 11.2867 37.2119 10.22V9.92C37.2119 8.86667 37.4185 7.96 37.8319 7.2C38.2452 6.44 38.7985 5.86 39.4919 5.46C40.1852 5.06 40.9452 4.86 41.7719 4.86C42.4119 4.86 42.9452 4.94 43.3719 5.1C43.8119 5.26 44.1719 5.46667 44.4519 5.72C44.7319 5.96 44.9452 6.21333 45.0919 6.48H45.4119V0.999999H47.4719V15H45.4519V13.6H45.1319C44.8785 14.0267 44.4919 14.4133 43.9719 14.76C43.4652 15.1067 42.7319 15.28 41.7719 15.28ZM42.3519 13.48C43.2452 13.48 43.9785 13.1933 44.5519 12.62C45.1385 12.0467 45.4319 11.2267 45.4319 10.16V9.98C45.4319 8.92667 45.1452 8.11333 44.5719 7.54C43.9985 6.96667 43.2585 6.68 42.3519 6.68C41.4719 6.68 40.7385 6.96667 40.1519 7.54C39.5785 8.11333 39.2919 8.92667 39.2919 9.98V10.16C39.2919 11.2267 39.5785 12.0467 40.1519 12.62C40.7385 13.1933 41.4719 13.48 42.3519 13.48ZM50.4444 15V0.999999H56.3244C57.191 0.999999 57.951 1.15333 58.6044 1.46C59.271 1.75333 59.7844 2.18 60.1444 2.74C60.5177 3.3 60.7044 3.96667 60.7044 4.74V4.96C60.7044 5.84 60.491 6.54667 60.0644 7.08C59.651 7.6 59.1444 7.96667 58.5444 8.18V8.5C59.051 8.52667 59.4577 8.7 59.7644 9.02C60.071 9.32667 60.2244 9.77333 60.2244 10.36V15H58.0444V10.66C58.0444 10.3 57.951 10.0133 57.7644 9.8C57.5777 9.58667 57.2777 9.48 56.8644 9.48H52.6044V15H50.4444ZM52.6044 7.52H56.0844C56.8577 7.52 57.4577 7.32667 57.8844 6.94C58.311 6.54 58.5244 6 58.5244 5.32V5.16C58.5244 4.48 58.311 3.94667 57.8844 3.56C57.471 3.16 56.871 2.96 56.0844 2.96H52.6044V7.52ZM63.1411 15V5.14H65.2011V15H63.1411ZM64.1811 3.8C63.7811 3.8 63.4411 3.67333 63.1611 3.42C62.8944 3.15333 62.7611 2.81333 62.7611 2.4C62.7611 1.98667 62.8944 1.65333 63.1611 1.4C63.4411 1.13333 63.7811 0.999999 64.1811 0.999999C64.5944 0.999999 64.9344 1.13333 65.2011 1.4C65.4678 1.65333 65.6011 1.98667 65.6011 2.4C65.6011 2.81333 65.4678 3.15333 65.2011 3.42C64.9344 3.67333 64.5944 3.8 64.1811 3.8ZM67.7783 10.12V9.82C67.7783 8.78 67.9849 7.89333 68.3983 7.16C68.8249 6.42667 69.3849 5.86 70.0783 5.46C70.7716 5.06 71.5316 4.86 72.3583 4.86C73.3183 4.86 74.0516 5.04 74.5583 5.4C75.0783 5.76 75.4583 6.14667 75.6983 6.56H76.0183V5.14H78.0183V17.02C78.0183 17.62 77.8383 18.1 77.4783 18.46C77.1316 18.82 76.6516 19 76.0383 19H69.3983V17.2H75.3983C75.7849 17.2 75.9783 17 75.9783 16.6V13.46H75.6583C75.5116 13.7 75.3049 13.9467 75.0383 14.2C74.7716 14.4533 74.4183 14.66 73.9783 14.82C73.5516 14.98 73.0116 15.06 72.3583 15.06C71.5316 15.06 70.7649 14.8667 70.0583 14.48C69.3649 14.08 68.8116 13.5133 68.3983 12.78C67.9849 12.0333 67.7783 11.1467 67.7783 10.12ZM72.9183 13.26C73.8116 13.26 74.5449 12.98 75.1183 12.42C75.7049 11.8467 75.9983 11.06 75.9983 10.06V9.88C75.9983 8.85333 75.7116 8.06667 75.1383 7.52C74.5649 6.96 73.8249 6.68 72.9183 6.68C72.0383 6.68 71.3049 6.96 70.7183 7.52C70.1449 8.06667 69.8583 8.85333 69.8583 9.88V10.06C69.8583 11.06 70.1449 11.8467 70.7183 12.42C71.3049 12.98 72.0383 13.26 72.9183 13.26ZM81.0513 15V0.999999H83.1113V6.54H83.4313C83.5646 6.28667 83.7513 6.04 83.9913 5.8C84.2446 5.56 84.5713 5.36667 84.9713 5.22C85.3846 5.06 85.9046 4.98 86.5313 4.98C87.2779 4.98 87.9379 5.14667 88.5113 5.48C89.0979 5.81333 89.5579 6.28667 89.8913 6.9C90.2246 7.5 90.3913 8.22667 90.3913 9.08V15H88.3313V9.24C88.3313 8.38667 88.1179 7.76 87.6913 7.36C87.2646 6.94667 86.6779 6.74 85.9313 6.74C85.0779 6.74 84.3913 7.02 83.8713 7.58C83.3646 8.14 83.1113 8.95333 83.1113 10.02V15H81.0513ZM96.7825 15C96.1825 15 95.7025 14.82 95.3425 14.46C94.9958 14.1 94.8225 13.62 94.8225 13.02V6.88H92.1025V5.14H94.8225V1.88H96.8825V5.14H99.8225V6.88H96.8825V12.66C96.8825 13.06 97.0692 13.26 97.4425 13.26H99.5025V15H96.7825Z" fill="#7E8A98"/>
</svg>
