<svg width="162" height="41" viewBox="0 0 162 41" fill="none" xmlns="http://www.w3.org/2000/svg">
<path d="M9.952 32.448C8.26667 32.448 6.77333 32.1493 5.472 31.552C4.17067 30.9547 3.14667 30.08 2.4 28.928C1.67467 27.7547 1.312 26.336 1.312 24.672V23.872H4.736V24.672C4.736 26.2507 5.20533 27.4347 6.144 28.224C7.104 29.0133 8.37333 29.408 9.952 29.408C11.552 29.408 12.7573 29.0773 13.568 28.416C14.3787 27.7333 14.784 26.8587 14.784 25.792C14.784 25.088 14.592 24.512 14.208 24.064C13.824 23.616 13.28 23.264 12.576 23.008C11.872 22.7307 11.0293 22.4747 10.048 22.24L8.864 21.952C7.43467 21.6107 6.18667 21.1947 5.12 20.704C4.07467 20.192 3.264 19.52 2.688 18.688C2.112 17.856 1.824 16.7893 1.824 15.488C1.824 14.1653 2.144 13.0347 2.784 12.096C3.44533 11.1573 4.352 10.432 5.504 9.92C6.656 9.408 8.01067 9.152 9.568 9.152C11.1253 9.152 12.512 9.41867 13.728 9.952C14.9653 10.4853 15.936 11.2747 16.64 12.32C17.344 13.3653 17.696 14.6773 17.696 16.256V17.408H14.272V16.256C14.272 15.296 14.0693 14.5173 13.664 13.92C13.28 13.3227 12.736 12.8853 12.032 12.608C11.328 12.3307 10.5067 12.192 9.568 12.192C8.20267 12.192 7.136 12.48 6.368 13.056C5.62133 13.6107 5.248 14.3893 5.248 15.392C5.248 16.0747 5.408 16.64 5.728 17.088C6.06933 17.5147 6.56 17.8667 7.2 18.144C7.84 18.4213 8.64 18.6667 9.6 18.88L10.784 19.168C12.2347 19.488 13.5147 19.904 14.624 20.416C15.7333 20.9067 16.608 21.5787 17.248 22.432C17.888 23.2853 18.208 24.384 18.208 25.728C18.208 27.072 17.8667 28.2453 17.184 29.248C16.5227 30.2507 15.5733 31.04 14.336 31.616C13.0987 32.1707 11.6373 32.448 9.952 32.448ZM29.164 32.448C27.564 32.448 26.1667 32.1173 24.972 31.456C23.7773 30.7733 22.8387 29.824 22.156 28.608C21.4947 27.3707 21.164 25.9413 21.164 24.32V23.936C21.164 22.2933 21.4947 20.864 22.156 19.648C22.8173 18.4107 23.7347 17.4613 24.908 16.8C26.1027 16.1173 27.4787 15.776 29.036 15.776C30.5507 15.776 31.8733 16.1173 33.004 16.8C34.156 17.4613 35.052 18.3893 35.692 19.584C36.332 20.7787 36.652 22.176 36.652 23.776V25.024H24.524C24.5667 26.4107 25.0253 27.52 25.9 28.352C26.796 29.1627 27.9053 29.568 29.228 29.568C30.4653 29.568 31.3933 29.2907 32.012 28.736C32.652 28.1813 33.1427 27.5413 33.484 26.816L36.204 28.224C35.9053 28.8213 35.468 29.4507 34.892 30.112C34.3373 30.7733 33.6013 31.328 32.684 31.776C31.7667 32.224 30.5933 32.448 29.164 32.448ZM24.556 22.496H33.292C33.2067 21.3013 32.78 20.3733 32.012 19.712C31.244 19.0293 30.2413 18.688 29.004 18.688C27.7667 18.688 26.7533 19.0293 25.964 19.712C25.196 20.3733 24.7267 21.3013 24.556 22.496ZM40.6195 32V16.224H43.8515V18.592H44.3635C44.6622 17.952 45.1955 17.3547 45.9635 16.8C46.7315 16.2453 47.8728 15.968 49.3875 15.968C50.5822 15.968 51.6382 16.2347 52.5555 16.768C53.4942 17.3013 54.2302 18.0587 54.7635 19.04C55.2968 20 55.5635 21.1627 55.5635 22.528V32H52.2675V22.784C52.2675 21.4187 51.9262 20.416 51.2435 19.776C50.5608 19.1147 49.6222 18.784 48.4275 18.784C47.0622 18.784 45.9635 19.232 45.1315 20.128C44.3208 21.024 43.9155 22.3253 43.9155 24.032V32H40.6195ZM66.835 32.448C65.5337 32.448 64.3283 32.128 63.219 31.488C62.1097 30.848 61.2137 29.9307 60.531 28.736C59.8697 27.52 59.539 26.0587 59.539 24.352V23.872C59.539 22.1867 59.8697 20.736 60.531 19.52C61.1923 18.304 62.0777 17.376 63.187 16.736C64.2963 16.096 65.5123 15.776 66.835 15.776C67.859 15.776 68.7123 15.904 69.395 16.16C70.099 16.416 70.675 16.7467 71.123 17.152C71.571 17.536 71.9123 17.9413 72.147 18.368H72.659V9.6H75.955V32H72.723V29.76H72.211C71.8057 30.4427 71.187 31.0613 70.355 31.616C69.5443 32.1707 68.371 32.448 66.835 32.448ZM67.763 29.568C69.1923 29.568 70.3657 29.1093 71.283 28.192C72.2217 27.2747 72.691 25.9627 72.691 24.256V23.968C72.691 22.2827 72.2323 20.9813 71.315 20.064C70.3977 19.1467 69.2137 18.688 67.763 18.688C66.355 18.688 65.1817 19.1467 64.243 20.064C63.3257 20.9813 62.867 22.2827 62.867 23.968V24.256C62.867 25.9627 63.3257 27.2747 64.243 28.192C65.1817 29.1093 66.355 29.568 67.763 29.568ZM80.711 32V9.6H90.119C91.5057 9.6 92.7217 9.84533 93.767 10.336C94.8337 10.8053 95.655 11.488 96.231 12.384C96.8283 13.28 97.127 14.3467 97.127 15.584V15.936C97.127 17.344 96.7857 18.4747 96.103 19.328C95.4417 20.16 94.631 20.7467 93.671 21.088V21.6C94.4817 21.6427 95.1323 21.92 95.623 22.432C96.1137 22.9227 96.359 23.6373 96.359 24.576V32H92.871V25.056C92.871 24.48 92.7217 24.0213 92.423 23.68C92.1243 23.3387 91.6443 23.168 90.983 23.168H84.167V32H80.711ZM84.167 20.032H89.735C90.9723 20.032 91.9323 19.7227 92.615 19.104C93.2977 18.464 93.639 17.6 93.639 16.512V16.256C93.639 15.168 93.2977 14.3147 92.615 13.696C91.9537 13.056 90.9937 12.736 89.735 12.736H84.167V20.032ZM101.026 32V16.224H104.322V32H101.026ZM102.69 14.08C102.05 14.08 101.506 13.8773 101.058 13.472C100.631 13.0453 100.418 12.5013 100.418 11.84C100.418 11.1787 100.631 10.6453 101.058 10.24C101.506 9.81333 102.05 9.6 102.69 9.6C103.351 9.6 103.895 9.81333 104.322 10.24C104.748 10.6453 104.962 11.1787 104.962 11.84C104.962 12.5013 104.748 13.0453 104.322 13.472C103.895 13.8773 103.351 14.08 102.69 14.08ZM108.445 24.192V23.712C108.445 22.048 108.776 20.6293 109.437 19.456C110.12 18.2827 111.016 17.376 112.125 16.736C113.235 16.096 114.451 15.776 115.773 15.776C117.309 15.776 118.483 16.064 119.293 16.64C120.125 17.216 120.733 17.8347 121.117 18.496H121.629V16.224H124.829V35.232C124.829 36.192 124.541 36.96 123.965 37.536C123.411 38.112 122.643 38.4 121.661 38.4H111.037V35.52H120.637C121.256 35.52 121.565 35.2 121.565 34.56V29.536H121.053C120.819 29.92 120.488 30.3147 120.061 30.72C119.635 31.1253 119.069 31.456 118.365 31.712C117.683 31.968 116.819 32.096 115.773 32.096C114.451 32.096 113.224 31.7867 112.093 31.168C110.984 30.528 110.099 29.6213 109.437 28.448C108.776 27.2533 108.445 25.8347 108.445 24.192ZM116.669 29.216C118.099 29.216 119.272 28.768 120.189 27.872C121.128 26.9547 121.597 25.696 121.597 24.096V23.808C121.597 22.1653 121.139 20.9067 120.221 20.032C119.304 19.136 118.12 18.688 116.669 18.688C115.261 18.688 114.088 19.136 113.149 20.032C112.232 20.9067 111.773 22.1653 111.773 23.808V24.096C111.773 25.696 112.232 26.9547 113.149 27.872C114.088 28.768 115.261 29.216 116.669 29.216ZM129.682 32V9.6H132.978V18.464H133.49C133.703 18.0587 134.002 17.664 134.386 17.28C134.791 16.896 135.314 16.5867 135.954 16.352C136.615 16.096 137.447 15.968 138.45 15.968C139.645 15.968 140.701 16.2347 141.618 16.768C142.557 17.3013 143.293 18.0587 143.826 19.04C144.359 20 144.626 21.1627 144.626 22.528V32H141.33V22.784C141.33 21.4187 140.989 20.416 140.306 19.776C139.623 19.1147 138.685 18.784 137.49 18.784C136.125 18.784 135.026 19.232 134.194 20.128C133.383 21.024 132.978 22.3253 132.978 24.032V32H129.682ZM154.852 32C153.892 32 153.124 31.712 152.548 31.136C151.993 30.56 151.716 29.792 151.716 28.832V19.008H147.364V16.224H151.716V11.008H155.012V16.224H159.716V19.008H155.012V28.256C155.012 28.896 155.311 29.216 155.908 29.216H159.204V32H154.852Z" fill="#333333"/>
</svg>
