<svg
        width="161"
        height="32"
        viewBox="0 0 161 32"
        fill="none"
        xmlns="http://www.w3.org/2000/svg"
>
    <path
            fillRule="evenodd"
            clipRule="evenodd"
            d="M113.765 8.66072C112.013 8.66072 111.262 10.1626 111.262 11.5643L111.287 17.6719H107.857V0H111.212V7.78464H111.287C111.862 6.58316 112.964 5.70706 114.866 5.70706C117.795 5.70706 119.297 7.73458 119.297 10.4129V17.6719H115.842V11.0136C115.842 9.61188 115.166 8.66072 113.765 8.66072ZM55.9935 4.86374e-05H59.4227V17.6719H55.9935V4.86374e-05ZM9.66134 17.6713H6.1069V11.739L0.5 1.15086H4.32974L7.10814 6.70771C7.44154 7.36408 7.70987 8.05153 7.90918 8.76023H7.98422C8.17326 8.05172 8.43325 7.36408 8.76021 6.70771L11.5136 1.15086H15.2432L9.66134 11.6638V17.6713ZM158.385 27.4094L158.475 27.3043C159.035 27.2597 159.598 27.2597 160.157 27.3043H158.966C158.966 27.4368 157.474 28.7016 156.423 29.5922L156.423 29.5926L156.422 29.5928C155.886 30.0472 155.465 30.404 155.416 30.4632C154.661 30.5241 153.749 30.5251 152.803 30.526C151.65 30.5272 150.446 30.5284 149.409 30.6384C149.612 30.6529 149.438 30.658 149.209 30.6647C148.885 30.674 148.452 30.6866 148.818 30.7335H147.627C148.003 30.733 148.378 30.6978 148.748 30.6284C147.021 30.6116 145.201 30.6173 143.418 30.6229H143.417H143.416H143.416H143.415H143.415H143.414H143.414H143.413H143.413H143.412H143.412H143.411C142.535 30.6257 141.667 30.6284 140.823 30.6284C140.022 30.6177 139.221 30.678 138.43 30.8086L138.501 30.7335H136.954C137.057 30.7631 137.084 30.7989 137.111 30.8338C137.155 30.8932 137.198 30.9499 137.614 30.9688C137.264 31.0065 136.91 31.0165 136.558 30.9988C136.743 30.9838 137.139 30.9087 136.808 30.9087C136.198 30.9062 136.106 30.9217 135.977 30.9436C135.852 30.9647 135.693 30.9917 134.996 31.0139C134.999 31.0111 135.033 31.0052 135.08 30.9971C135.289 30.9607 135.75 30.8805 134.801 30.8437C132.992 30.8091 125.911 30.8733 120.126 30.9259H120.125H120.125L120.125 30.9259H120.125H120.124L120.124 30.9259L120.124 30.9259L120.123 30.9259L120.122 30.9259L120.122 30.9259H120.122C116.751 30.9565 113.821 30.9831 112.631 30.9838C112.722 30.9714 112.873 30.9028 113.022 30.8348C113.172 30.7668 113.32 30.6995 113.405 30.6897L111.973 30.7786L112.754 30.8737C111.828 30.9668 108.533 31.057 105.437 31.1416L105.437 31.1416H105.437C102.875 31.2117 100.45 31.2781 99.6175 31.3393H100.118C98.6766 31.4444 97.6354 31.4444 95.9039 31.4444L96.9742 31.3994C96.2042 31.2813 95.4235 31.2493 94.6464 31.3042L95.2921 31.3493C94.485 31.4381 93.7713 31.4286 92.8013 31.4156L92.8009 31.4156H92.8008H92.8007C92.4052 31.4103 91.9669 31.4044 91.4624 31.4044L92.1283 31.4394H90.7365C91.2939 31.3996 90.9371 31.3785 90.5095 31.3532C90.2381 31.3372 89.9382 31.3195 89.8254 31.2942C90.4061 31.4344 88.6639 31.4344 88.1633 31.4344C88.0343 31.3979 87.6497 31.4193 87.2777 31.4401C86.8844 31.4621 86.5051 31.4833 86.4562 31.4344C85.9872 31.4604 86.2717 31.5129 86.4697 31.5263C85.879 31.5056 85.3251 31.5365 84.6382 31.5749L84.638 31.5749C84.0144 31.6097 83.2811 31.6507 82.3111 31.6646C80.8646 31.6626 80.5019 31.6494 80.325 31.6429L80.2784 31.6413C80.2618 31.6407 80.2464 31.6403 80.231 31.6399C80.128 31.6378 80.0247 31.6415 79.551 31.6585L79.5504 31.6585L79.5501 31.6585L79.55 31.6585L79.5498 31.6585C79.2037 31.6709 78.6602 31.6904 77.7755 31.7198L77.315 31.6547L77.0496 31.7648C76.7018 31.6704 76.1135 31.6611 75.5651 31.6523C75.0084 31.6435 74.4928 31.6353 74.3113 31.5395C74.1217 31.5676 73.9257 31.5661 73.676 31.5643C73.3915 31.5622 73.0374 31.5596 72.5441 31.5996C72.7823 31.6838 73.2467 31.6922 73.6824 31.7001C73.9974 31.7057 74.2974 31.7112 74.4865 31.7448C71.633 31.8019 60.7341 31.7892 55.0464 31.7825H55.0461H55.0459H55.0454H55.0448L55.0403 31.7825C53.7557 31.781 52.7376 31.7798 52.1388 31.7798C52.6695 31.7648 52.5644 31.6997 52.0637 31.6697L50.8172 31.7148C50.8717 31.7257 50.9514 31.7326 51.0213 31.7387C51.144 31.7494 51.2369 31.7575 51.1126 31.7798C50.6362 31.7528 50.1583 31.7729 49.6858 31.8399C49.7359 31.7598 48.8898 31.7598 48.8898 31.7598C48.6426 31.8042 48.1018 31.7932 47.5077 31.7812H47.5077H47.5077C46.6946 31.7648 45.7818 31.7463 45.3855 31.8649C44.5072 31.8849 44.4044 31.8562 44.2836 31.8224C44.1628 31.7886 44.0241 31.7498 43.0727 31.7498L42.9525 31.89C42.7923 31.8749 32.7999 31.935 33.0903 32.0001C32.8401 31.9339 32.583 31.897 32.3243 31.89C31.428 31.9129 30.5421 31.9229 29.6327 31.9331H29.6325C28.7592 31.9429 27.8643 31.953 26.9177 31.975C26.9555 31.972 26.993 31.9695 27.0274 31.9673H27.0274C27.1612 31.9586 27.2484 31.9529 27.1329 31.925C22.8657 31.9783 18.7162 31.9606 14.5484 31.9428H14.5484H14.5484H14.5483H14.5483H14.5483H14.5483H14.5483H14.5483H14.5482H14.5482H14.5482H14.5482L14.5473 31.9428C12.4567 31.9339 10.3616 31.925 8.24459 31.925C7.62166 31.9224 7.58008 31.8875 7.54076 31.8545C7.50423 31.8238 7.46965 31.7948 6.97306 31.7948C6.4717 31.7719 5.91181 31.8103 5.43433 31.8432C5.28724 31.8533 5.14797 31.8628 5.02063 31.8699C5.07251 31.8766 5.14564 31.8811 5.21273 31.8852C5.34634 31.8933 5.45598 31.9 5.326 31.92C4.99084 31.885 4.58073 31.885 4.16054 31.885H4.15958C4.21024 31.879 4.26625 31.8729 4.32306 31.8666H4.32308C4.60306 31.8357 4.90256 31.8027 4.67651 31.7878C4.53787 31.788 4.38391 31.7858 4.21464 31.7798H3.3836L3.44868 31.7047C-0.776536 31.1591 2.53752 28.4657 2.53752 28.4657H2.83794L4.9055 28.676C7.12199 28.5822 9.57473 28.6186 11.6681 28.6496C12.5913 28.6633 13.4446 28.676 14.1769 28.676C14.4532 28.672 14.8487 28.6705 15.3079 28.6687H15.3079H15.3079H15.3079H15.308H15.308H15.308C16.5791 28.6638 18.3382 28.6571 19.4084 28.5909L19.3383 28.6659C20.4283 28.6472 21.773 28.5872 22.8857 28.5376L22.8858 28.5376C23.5516 28.5079 24.1343 28.4819 24.5297 28.4707L24.5047 28.5008C25.2005 28.4908 27.0378 28.3956 26.8175 28.2555C27.993 28.3524 29.1731 28.3808 30.3519 28.3406H30.0215C31.2901 28.3042 35.1261 28.3029 38.817 28.3016C42.2339 28.3005 45.5263 28.2994 46.5419 28.2705L46.3467 28.3055C47.2384 28.2632 48.2294 28.2565 49.2313 28.2498H49.2314C50.4793 28.2415 51.744 28.2331 52.8547 28.1553C56.5943 28.2104 72.7193 28.2104 76.9295 28.1103C78.7417 28.0805 78.829 28.0508 78.895 28.0283C78.9622 28.0054 79.0072 27.9901 80.8343 27.9901C81.3499 27.9901 81.5752 27.9301 80.9144 27.895C81.2882 27.9013 81.7003 27.9027 82.1249 27.9041C83.0481 27.9071 84.0308 27.9103 84.8092 27.9651C89.843 27.8555 98.2731 27.7858 105.376 27.727C108.658 27.6999 111.656 27.675 113.905 27.6497H113.72C115.267 27.6365 118.319 27.6018 121.878 27.5613L121.887 27.5612L121.892 27.5611L121.898 27.5611L121.9 27.561L121.903 27.561C129.082 27.4794 138.313 27.3744 141.419 27.3744L142.355 27.2792C142.856 27.3075 143.34 27.3081 143.873 27.3087C144.379 27.3093 144.929 27.31 145.579 27.3343C146.21 27.3208 146.038 27.2546 145.756 27.2415C146.291 27.2526 146.843 27.243 147.343 27.2344L147.343 27.2344C147.905 27.2246 148.401 27.216 148.733 27.2392L148.538 27.2693C149.437 27.3088 150.148 27.2727 150.877 27.2357C151.626 27.1976 152.395 27.1586 153.409 27.1992C154.232 27.2159 155.056 27.1908 155.877 27.1241C156.404 27.1424 156.401 27.1718 156.398 27.2006C156.395 27.2268 156.392 27.2526 156.788 27.2693C157.497 27.1987 158.21 27.187 158.921 27.2342C157.935 27.2492 156.818 27.2742 156.883 27.3643C157.47 27.357 157.546 27.3781 157.613 27.3965C157.684 27.416 157.744 27.4325 158.385 27.4094ZM145.659 27.2392L145.756 27.2415C145.725 27.24 145.692 27.2392 145.659 27.2392ZM86.4697 31.5263L86.523 31.5283L86.5514 31.5295C86.5391 31.5295 86.5254 31.5292 86.5107 31.5286L86.4927 31.5277L86.4697 31.5263ZM112.584 30.9838C112.597 30.9865 112.613 30.9863 112.631 30.9838L112.584 30.9838ZM5.10314 31.7798H5.61133C5.64248 31.7531 5.56783 31.7571 5.38739 31.7667C5.3114 31.7707 5.21665 31.7757 5.10314 31.7798ZM20.0243 17.8233C23.7539 17.8233 26.232 15.3202 26.232 11.7658C26.232 8.21139 23.7289 5.70831 20.0243 5.70831C16.3197 5.70831 13.7916 8.21139 13.7916 11.7658C13.7916 15.3202 16.2697 17.8233 20.0243 17.8233ZM20.0243 8.51176C21.7014 8.51176 22.7526 9.86343 22.7526 11.7658C22.7526 13.6681 21.7014 15.0198 20.0243 15.0198C18.3472 15.0198 17.2709 13.6932 17.2709 11.7658C17.2709 9.8384 18.3222 8.51176 20.0243 8.51176ZM34.8647 17.2262C34.2064 17.6591 33.4261 17.8683 32.6396 17.8227C29.711 17.8227 28.2091 15.7952 28.2091 13.1169V5.85795H31.6634V12.5161C31.6634 13.9179 32.3643 14.8691 33.741 14.8691C35.2929 14.8691 36.0689 13.3422 36.0689 11.9655V5.85795H39.4981V17.6725L36.7196 17.7726C36.527 17.0006 36.4014 16.2134 36.3442 15.4198H36.2941C36.0242 16.1599 35.5229 16.7934 34.8647 17.2262ZM45.6057 11.9649C45.6057 9.98746 46.7321 8.9612 48.0337 8.9612C48.518 8.95606 48.9914 9.10508 49.3854 9.38671L50.2865 6.08264C49.7335 5.84415 49.1365 5.72477 48.5343 5.73223C46.7571 5.73223 45.831 6.88362 45.3805 8.38547H45.2803C45.2397 7.50419 45.0969 6.63062 44.8548 5.78228L42.1765 5.88238V17.697H45.6057V11.9649ZM67.733 17.8233C71.4626 17.8233 73.9406 15.3202 73.9406 11.7658C73.9406 8.21139 71.4376 5.70831 67.733 5.70831C64.0284 5.70831 61.5003 8.21139 61.5003 11.7658C61.5003 15.3202 63.9784 17.8233 67.733 17.8233ZM67.733 8.51176C69.4101 8.51176 70.4613 9.86343 70.4613 11.7658C70.4613 13.6681 69.4101 15.0198 67.733 15.0198C66.0559 15.0198 64.9796 13.6932 64.9796 11.7658C64.9796 9.8384 66.0209 8.51176 67.733 8.51176ZM87.6078 19.0999C87.6078 20.9772 86.2311 22.9296 81.1498 22.9296C76.8195 22.9296 74.8671 21.6781 74.8671 19.8759C74.8671 18.6994 75.618 17.8984 76.8445 17.4979C76.4399 17.2822 76.1009 16.9615 75.8631 16.5695C75.6252 16.1775 75.4974 15.7286 75.4929 15.2702C75.4998 14.7682 75.6694 14.2821 75.9764 13.8848C76.2833 13.4876 76.711 13.2008 77.1949 13.0675C76.7783 12.6883 76.4486 12.2236 76.2283 11.7052C76.0079 11.1868 75.9022 10.6268 75.9184 10.0638C75.9184 7.48558 77.9959 5.70835 81.1498 5.70835C82.2261 5.68567 83.2916 5.92628 84.2537 6.40923C85.0547 5.95867 85.3801 4.83227 85.3801 3.58072L87.9582 4.25655C87.9647 4.98466 87.7265 5.69386 87.2816 6.27033C86.8368 6.84679 86.2112 7.25716 85.5053 7.43552C86.14 8.16176 86.4793 9.09954 86.4564 10.0638C86.4564 12.642 84.3538 14.3941 81.1749 14.3941C80.4359 14.4077 79.6999 14.2977 78.9972 14.0687C78.4465 14.1939 78.1712 14.4191 78.1712 14.7946C78.1712 15.3953 78.6718 15.5956 80.0735 15.5956H82.7268C85.6054 15.5956 87.6078 16.6969 87.6078 19.0999ZM83.3025 10.0888C83.3276 8.9874 82.4765 8.18645 81.2249 8.18645C79.9734 8.18645 79.1974 8.88727 79.1474 10.0137C79.0973 11.1401 79.8482 11.916 81.1498 11.916C82.4514 11.916 83.2775 11.1901 83.3025 10.0888ZM82.4014 18.1988H80.1737V18.1738C78.4715 18.1738 77.8958 18.6243 77.8958 19.3252C77.8958 20.1512 78.6968 20.5768 81.1498 20.5768C83.6029 20.5768 84.4539 20.1011 84.4539 19.2751C84.4539 18.4491 83.8031 18.1988 82.4014 18.1988ZM94.5561 17.8233C98.2857 17.8233 100.764 15.3202 100.764 11.7658C100.764 8.21139 98.2857 5.70831 94.5561 5.70831C90.8265 5.70831 88.3234 8.21139 88.3234 11.7658C88.3234 15.3202 90.7865 17.8233 94.5561 17.8233ZM94.5561 8.51176C96.2332 8.51176 97.2845 9.86343 97.2845 11.7658C97.2845 13.6681 96.2332 15.0198 94.5561 15.0198C92.879 15.0198 91.8027 13.6932 91.8027 11.7658C91.8027 9.8384 92.839 8.51176 94.5561 8.51176ZM127.632 17.8233C130.185 17.8233 131.912 16.8221 132.713 15.7457L131.086 13.8684C130.711 14.3086 130.242 14.6586 129.713 14.8926C129.185 15.1266 128.61 15.2385 128.032 15.2201C126.08 15.2201 124.979 14.1187 124.678 12.5418H132.638C132.709 12.1284 132.742 11.7095 132.738 11.2902C132.738 8.06122 130.736 5.70831 127.306 5.70831C123.652 5.70831 121.269 8.23642 121.269 11.7658C121.269 15.2951 123.652 17.8233 127.632 17.8233ZM127.306 8.31156C128.733 8.31156 129.584 9.36281 129.609 10.7645H124.678C124.929 9.18759 125.955 8.31156 127.306 8.31156ZM140.748 8.96116C139.442 8.96116 138.315 9.98743 138.315 11.9649V17.697H134.886V5.88234L137.564 5.78224C137.807 6.63058 137.949 7.50415 137.99 8.38544H138.09C138.541 6.88358 139.467 5.73219 141.249 5.73219C141.851 5.72518 142.448 5.84454 143.001 6.0826L142.1 9.38667C141.706 9.10598 141.233 8.95706 140.748 8.96116ZM149.734 17.8233C152.287 17.8233 154.014 16.8221 154.815 15.7457L153.188 13.8684C152.814 14.3086 152.344 14.6586 151.816 14.8926C151.287 15.1266 150.713 15.2385 150.135 15.2201C148.177 15.2201 147.076 14.1187 146.781 12.5418H154.74C154.811 12.1284 154.845 11.7095 154.841 11.2902C154.841 8.06122 152.838 5.70831 149.409 5.70831C145.754 5.70831 143.371 8.23642 143.371 11.7658C143.371 15.2951 145.754 17.8233 149.734 17.8233ZM149.409 8.31156C150.836 8.31156 151.687 9.36281 151.712 10.7645H146.781C147.031 9.18759 148.052 8.31156 149.409 8.31156ZM159.6 17.4925C159.279 17.7071 158.901 17.8216 158.515 17.8216C157.998 17.8203 157.502 17.6141 157.136 17.2483C156.77 16.8824 156.564 16.3866 156.563 15.8692C156.563 15.483 156.677 15.1055 156.892 14.7845C157.106 14.4634 157.411 14.2131 157.768 14.0654C158.125 13.9176 158.517 13.8789 158.896 13.9543C159.275 14.0296 159.622 14.2156 159.896 14.4886C160.169 14.7617 160.355 15.1095 160.43 15.4883C160.505 15.867 160.467 16.2596 160.319 16.6163C160.171 16.9731 159.921 17.278 159.6 17.4925Z"
            fill="#b7b7bb"
    />
</svg>
