<svg width="588" height="510" viewBox="0 0 588 510" fill="none" xmlns="http://www.w3.org/2000/svg">
<g clip-path="url(#clip0_16_133)">
<rect width="588" height="510" fill="white"/>
<g opacity="0.9" clip-path="url(#clip1_16_133)">
<path fill-rule="evenodd" clip-rule="evenodd" d="M548.629 313.611C547.752 312.092 545.797 311.579 544.262 312.464C542.728 313.35 542.195 315.3 543.072 316.819C543.949 318.339 545.904 318.852 547.438 317.966C548.973 317.08 549.506 315.13 548.629 313.611ZM561.729 317.051C560.852 315.532 558.897 315.018 557.362 315.904C555.828 316.79 555.295 318.74 556.172 320.259C557.049 321.778 559.004 322.292 560.538 321.406C562.073 320.52 562.606 318.57 561.729 317.051ZM549.287 282.667C551.589 281.338 554.521 282.108 555.837 284.387C557.153 286.666 556.353 289.591 554.051 290.92C551.75 292.248 548.817 291.478 547.501 289.2C546.186 286.921 546.985 283.996 549.287 282.667ZM555.11 292.753C557.156 291.572 559.763 292.256 560.932 294.282C562.102 296.308 561.391 298.907 559.345 300.089C557.299 301.27 554.692 300.586 553.523 298.56C552.353 296.534 553.064 293.935 555.11 292.753ZM565.3 303.986C564.423 302.467 562.468 301.953 560.933 302.839C559.399 303.725 558.866 305.675 559.743 307.194C560.62 308.714 562.575 309.227 564.11 308.341C565.644 307.455 566.177 305.505 565.3 303.986ZM565.698 311.092C567.232 310.206 569.187 310.719 570.064 312.238C570.942 313.757 570.409 315.707 568.874 316.593C567.34 317.479 565.384 316.966 564.507 315.447C563.63 313.927 564.163 311.978 565.698 311.092ZM573.572 319.382C572.841 318.116 571.212 317.689 569.933 318.427C568.654 319.165 568.21 320.79 568.941 322.056C569.672 323.322 571.301 323.75 572.58 323.011C573.859 322.273 574.303 320.648 573.572 319.382ZM574.033 306.279C575.568 305.393 577.523 305.906 578.4 307.426C579.277 308.945 578.744 310.895 577.21 311.781C575.675 312.666 573.72 312.153 572.843 310.634C571.966 309.115 572.499 307.165 574.033 306.279ZM569.269 298.027C570.803 297.141 572.758 297.654 573.636 299.173C574.513 300.693 573.98 302.642 572.445 303.528C570.911 304.414 568.956 303.901 568.079 302.382C567.201 300.863 567.734 298.913 569.269 298.027ZM581.971 294.361C581.094 292.842 579.139 292.328 577.604 293.214C576.07 294.1 575.537 296.05 576.414 297.569C577.291 299.088 579.246 299.602 580.781 298.716C582.315 297.83 582.848 295.88 581.971 294.361ZM552.598 307.652C554.132 306.766 556.087 307.279 556.964 308.798C557.842 310.318 557.309 312.267 555.774 313.153C554.239 314.039 552.284 313.526 551.407 312.007C550.53 310.488 551.063 308.538 552.598 307.652ZM564.372 287.406C566.418 286.225 569.025 286.909 570.194 288.935C571.364 290.96 570.653 293.56 568.607 294.741C566.561 295.923 563.954 295.238 562.785 293.213C561.615 291.187 562.326 288.587 564.372 287.406ZM551.671 299.629C550.501 297.604 547.894 296.919 545.848 298.101C543.802 299.282 543.092 301.882 544.261 303.907C545.431 305.933 548.037 306.617 550.083 305.436C552.129 304.255 552.84 301.655 551.671 299.629Z" fill="#F3605D"/>
</g>
<path d="M388.752 307.724C400.798 318.314 409.513 347.127 395.555 352.388C382.85 357.177 348.584 303.944 358.168 300.037C374.447 293.401 379.055 351.038 369.45 363.938C361.421 374.722 344.195 329.954 347.952 328.07C349.551 327.269 351.878 330.871 352.521 331.815C370.899 358.778 337.297 399.627 313.034 366.989" stroke="#121619" stroke-width="0.839713" stroke-miterlimit="1.5" stroke-linecap="round" stroke-linejoin="round"/>
<mask id="mask0_16_133" style="mask-type:luminance" maskUnits="userSpaceOnUse" x="255" y="117" width="106" height="106">
<path d="M361 170C361 140.729 337.271 117 308 117C278.729 117 255 140.729 255 170C255 199.271 278.729 223 308 223C337.271 223 361 199.271 361 170Z" fill="white"/>
</mask>
<g mask="url(#mask0_16_133)">
<path d="M361 170C361 140.729 337.271 117 308 117C278.729 117 255 140.729 255 170C255 199.271 278.729 223 308 223C337.271 223 361 199.271 361 170Z" fill="#ABD465"/>
<path d="M261.521 107.172C314.581 99.1282 318.306 102.67 272.697 117.798C214.062 140.905 217.786 144.447 283.872 128.424C347.104 109.688 350.829 113.23 295.047 139.05C226.453 173.92 230.178 177.461 306.222 149.676C380.06 119.793 383.785 123.335 317.397 160.302C268.896 183.512 272.621 187.055 328.572 170.928C387.043 157.198 390.768 160.74 339.748 181.555C236.534 237.235 240.259 240.777 350.923 192.181C451.598 134.088 455.324 137.63 362.098 202.807C307.196 235.097 310.921 238.639 373.273 213.433" stroke="white" stroke-width="1.31405"/>
</g>
<path d="M576.764 25.0032L570.431 29.2286" stroke="#121619" stroke-miterlimit="1.5" stroke-linecap="round" stroke-linejoin="round"/>
<path d="M556.274 9.31583L555.85 22.1306" stroke="#121619" stroke-miterlimit="1.5" stroke-linecap="round" stroke-linejoin="round"/>
<path d="M580.565 -3.038L563.807 25.0957" stroke="#121619" stroke-miterlimit="1.5" stroke-linecap="round" stroke-linejoin="round"/>
<path d="M596.632 32.7346L575.183 36.4745" stroke="#121619" stroke-miterlimit="1.5" stroke-linecap="round" stroke-linejoin="round"/>
<path d="M579.93 60.4331C581.257 60.6097 582.475 59.6776 582.651 58.3512C582.828 57.0248 581.896 55.8066 580.569 55.63C579.243 55.4534 578.025 56.3855 577.848 57.7119C577.672 59.0383 578.604 60.2565 579.93 60.4331Z" stroke="#121619" stroke-miterlimit="2" stroke-linecap="round"/>
<g filter="url(#filter0_d_16_133)">
<rect x="340" y="34" width="224" height="273" rx="5" fill="white"/>
<rect x="339.5" y="33.5" width="225" height="274" rx="5.5" stroke="#2C4BFF"/>
</g>
<path d="M361.959 246V237.273H365.155C365.774 237.273 366.287 237.375 366.693 237.58C367.099 237.781 367.403 238.055 367.605 238.402C367.807 238.746 367.908 239.134 367.908 239.565C367.908 239.929 367.841 240.236 367.707 240.486C367.574 240.733 367.395 240.932 367.17 241.082C366.949 241.23 366.705 241.338 366.438 241.406V241.491C366.727 241.506 367.01 241.599 367.286 241.773C367.564 241.943 367.794 242.186 367.976 242.501C368.158 242.817 368.249 243.2 368.249 243.652C368.249 244.098 368.143 244.499 367.933 244.854C367.726 245.206 367.405 245.486 366.97 245.693C366.536 245.898 365.98 246 365.304 246H361.959ZM363.276 244.871H365.176C365.807 244.871 366.259 244.749 366.531 244.504C366.804 244.26 366.94 243.955 366.94 243.588C366.94 243.312 366.871 243.06 366.732 242.83C366.592 242.599 366.393 242.416 366.135 242.28C365.879 242.143 365.575 242.075 365.223 242.075H363.276V244.871ZM363.276 241.048H365.04C365.335 241.048 365.601 240.991 365.837 240.878C366.075 240.764 366.264 240.605 366.403 240.401C366.545 240.193 366.616 239.949 366.616 239.668C366.616 239.307 366.49 239.004 366.237 238.76C365.984 238.516 365.597 238.393 365.074 238.393H363.276V241.048ZM372.529 246.132C371.884 246.132 371.329 245.994 370.863 245.719C370.4 245.44 370.042 245.05 369.789 244.547C369.539 244.041 369.414 243.449 369.414 242.77C369.414 242.099 369.539 241.509 369.789 240.997C370.042 240.486 370.394 240.087 370.846 239.8C371.3 239.513 371.832 239.369 372.44 239.369C372.809 239.369 373.167 239.43 373.513 239.553C373.86 239.675 374.171 239.866 374.447 240.128C374.722 240.389 374.94 240.729 375.099 241.146C375.258 241.561 375.337 242.065 375.337 242.659V243.111H370.134V242.156H374.089C374.089 241.821 374.021 241.524 373.884 241.266C373.748 241.004 373.556 240.798 373.309 240.648C373.065 240.497 372.778 240.422 372.448 240.422C372.09 240.422 371.778 240.51 371.511 240.686C371.246 240.859 371.042 241.087 370.897 241.368C370.755 241.646 370.684 241.949 370.684 242.276V243.021C370.684 243.459 370.761 243.831 370.914 244.138C371.07 244.445 371.288 244.679 371.566 244.841C371.844 245 372.17 245.08 372.542 245.08C372.783 245.08 373.004 245.045 373.202 244.977C373.401 244.906 373.573 244.801 373.718 244.662C373.863 244.523 373.974 244.351 374.05 244.146L375.256 244.364C375.16 244.719 374.987 245.03 374.737 245.297C374.489 245.561 374.178 245.767 373.803 245.915C373.431 246.06 373.006 246.132 372.529 246.132ZM381.656 241.053L380.501 241.257C380.453 241.109 380.376 240.969 380.271 240.835C380.169 240.702 380.029 240.592 379.853 240.507C379.677 240.422 379.457 240.379 379.193 240.379C378.832 240.379 378.531 240.46 378.289 240.622C378.048 240.781 377.927 240.987 377.927 241.24C377.927 241.459 378.008 241.635 378.17 241.768C378.332 241.902 378.593 242.011 378.954 242.097L379.994 242.335C380.596 242.474 381.045 242.689 381.341 242.979C381.636 243.268 381.784 243.645 381.784 244.108C381.784 244.5 381.67 244.849 381.443 245.156C381.218 245.46 380.904 245.699 380.501 245.872C380.1 246.045 379.636 246.132 379.108 246.132C378.375 246.132 377.777 245.976 377.314 245.663C376.85 245.348 376.566 244.901 376.461 244.321L377.693 244.134C377.77 244.455 377.927 244.697 378.166 244.862C378.404 245.024 378.716 245.105 379.099 245.105C379.517 245.105 379.85 245.018 380.1 244.845C380.35 244.669 380.475 244.455 380.475 244.202C380.475 243.997 380.399 243.825 380.245 243.686C380.095 243.547 379.863 243.442 379.551 243.371L378.443 243.128C377.832 242.989 377.38 242.767 377.088 242.463C376.798 242.159 376.653 241.774 376.653 241.308C376.653 240.922 376.761 240.584 376.977 240.294C377.193 240.004 377.491 239.778 377.872 239.616C378.252 239.452 378.689 239.369 379.18 239.369C379.887 239.369 380.444 239.523 380.85 239.83C381.257 240.134 381.525 240.541 381.656 241.053ZM386.24 239.455V240.477H382.665V239.455H386.24ZM383.624 237.886H384.898V244.078C384.898 244.325 384.935 244.511 385.009 244.636C385.082 244.759 385.178 244.842 385.294 244.888C385.413 244.93 385.543 244.952 385.682 244.952C385.784 244.952 385.874 244.945 385.95 244.93C386.027 244.916 386.087 244.905 386.129 244.896L386.359 245.949C386.286 245.977 386.18 246.006 386.044 246.034C385.908 246.065 385.737 246.082 385.533 246.085C385.197 246.091 384.885 246.031 384.595 245.906C384.305 245.781 384.071 245.588 383.892 245.327C383.713 245.065 383.624 244.737 383.624 244.342V237.886ZM390.825 246V239.455H392.057V240.494H392.125C392.244 240.142 392.455 239.865 392.756 239.663C393.06 239.459 393.403 239.357 393.787 239.357C393.866 239.357 393.96 239.359 394.068 239.365C394.179 239.371 394.266 239.378 394.328 239.386V240.605C394.277 240.591 394.186 240.575 394.055 240.558C393.925 240.538 393.794 240.528 393.663 240.528C393.362 240.528 393.094 240.592 392.858 240.72C392.625 240.845 392.44 241.02 392.304 241.244C392.168 241.466 392.099 241.719 392.099 242.003V246H390.825ZM398.017 246.132C397.373 246.132 396.817 245.994 396.351 245.719C395.888 245.44 395.53 245.05 395.277 244.547C395.027 244.041 394.902 243.449 394.902 242.77C394.902 242.099 395.027 241.509 395.277 240.997C395.53 240.486 395.882 240.087 396.334 239.8C396.789 239.513 397.32 239.369 397.928 239.369C398.297 239.369 398.655 239.43 399.002 239.553C399.348 239.675 399.659 239.866 399.935 240.128C400.211 240.389 400.428 240.729 400.587 241.146C400.746 241.561 400.826 242.065 400.826 242.659V243.111H395.623V242.156H399.577C399.577 241.821 399.509 241.524 399.373 241.266C399.236 241.004 399.044 240.798 398.797 240.648C398.553 240.497 398.266 240.422 397.936 240.422C397.578 240.422 397.266 240.51 396.999 240.686C396.735 240.859 396.53 241.087 396.385 241.368C396.243 241.646 396.172 241.949 396.172 242.276V243.021C396.172 243.459 396.249 243.831 396.402 244.138C396.559 244.445 396.776 244.679 397.054 244.841C397.333 245 397.658 245.08 398.03 245.08C398.272 245.08 398.492 245.045 398.691 244.977C398.89 244.906 399.061 244.801 399.206 244.662C399.351 244.523 399.462 244.351 399.539 244.146L400.745 244.364C400.648 244.719 400.475 245.03 400.225 245.297C399.978 245.561 399.667 245.767 399.292 245.915C398.919 246.06 398.495 246.132 398.017 246.132ZM404.984 248.591C404.464 248.591 404.016 248.523 403.641 248.386C403.269 248.25 402.965 248.07 402.729 247.845C402.494 247.621 402.317 247.375 402.201 247.108L403.296 246.656C403.373 246.781 403.475 246.913 403.603 247.053C403.734 247.195 403.91 247.315 404.131 247.415C404.356 247.514 404.644 247.564 404.996 247.564C405.479 247.564 405.879 247.446 406.194 247.21C406.509 246.977 406.667 246.605 406.667 246.094V244.807H406.586C406.509 244.946 406.398 245.101 406.254 245.271C406.112 245.442 405.915 245.589 405.665 245.714C405.415 245.839 405.09 245.902 404.69 245.902C404.173 245.902 403.707 245.781 403.292 245.54C402.88 245.295 402.553 244.936 402.312 244.462C402.073 243.984 401.954 243.398 401.954 242.702C401.954 242.006 402.072 241.409 402.308 240.912C402.546 240.415 402.873 240.034 403.288 239.77C403.702 239.503 404.173 239.369 404.698 239.369C405.104 239.369 405.433 239.438 405.683 239.574C405.933 239.707 406.127 239.864 406.266 240.043C406.408 240.222 406.518 240.379 406.594 240.516H406.688V239.455H407.937V246.145C407.937 246.707 407.806 247.169 407.545 247.53C407.283 247.891 406.93 248.158 406.484 248.331C406.04 248.504 405.54 248.591 404.984 248.591ZM404.971 244.845C405.337 244.845 405.647 244.76 405.9 244.589C406.156 244.416 406.349 244.169 406.479 243.848C406.613 243.524 406.68 243.136 406.68 242.685C406.68 242.244 406.614 241.857 406.484 241.521C406.353 241.186 406.161 240.925 405.908 240.737C405.656 240.547 405.343 240.452 404.971 240.452C404.587 240.452 404.268 240.551 404.012 240.75C403.756 240.946 403.563 241.213 403.433 241.551C403.305 241.889 403.241 242.267 403.241 242.685C403.241 243.114 403.306 243.49 403.437 243.814C403.567 244.138 403.761 244.391 404.016 244.572C404.275 244.754 404.593 244.845 404.971 244.845ZM411.55 246.145C411.136 246.145 410.761 246.068 410.425 245.915C410.09 245.759 409.825 245.533 409.629 245.237C409.435 244.942 409.339 244.58 409.339 244.151C409.339 243.781 409.41 243.477 409.552 243.239C409.694 243 409.886 242.811 410.127 242.672C410.369 242.533 410.638 242.428 410.937 242.357C411.235 242.286 411.539 242.232 411.849 242.195C412.241 242.149 412.559 242.112 412.803 242.084C413.048 242.053 413.225 242.003 413.336 241.935C413.447 241.866 413.502 241.756 413.502 241.602V241.572C413.502 241.2 413.397 240.912 413.187 240.707C412.979 240.503 412.67 240.401 412.258 240.401C411.829 240.401 411.491 240.496 411.244 240.686C410.999 240.874 410.83 241.082 410.737 241.312L409.539 241.04C409.681 240.642 409.888 240.321 410.161 240.077C410.437 239.83 410.754 239.651 411.112 239.54C411.469 239.426 411.846 239.369 412.241 239.369C412.502 239.369 412.779 239.401 413.072 239.463C413.367 239.523 413.643 239.634 413.898 239.795C414.157 239.957 414.369 240.189 414.533 240.49C414.698 240.788 414.781 241.176 414.781 241.653V246H413.536V245.105H413.485C413.403 245.27 413.279 245.432 413.114 245.591C412.95 245.75 412.738 245.882 412.479 245.987C412.221 246.092 411.911 246.145 411.55 246.145ZM411.827 245.122C412.18 245.122 412.481 245.053 412.731 244.913C412.984 244.774 413.175 244.592 413.306 244.368C413.44 244.141 413.506 243.898 413.506 243.639V242.795C413.461 242.841 413.373 242.884 413.242 242.923C413.114 242.96 412.968 242.993 412.803 243.021C412.638 243.047 412.478 243.071 412.322 243.094C412.165 243.114 412.035 243.131 411.93 243.145C411.683 243.176 411.457 243.229 411.252 243.303C411.05 243.376 410.888 243.483 410.766 243.622C410.647 243.759 410.587 243.94 410.587 244.168C410.587 244.483 410.704 244.722 410.937 244.884C411.17 245.043 411.467 245.122 411.827 245.122ZM416.478 246V239.455H417.709V240.494H417.777C417.897 240.142 418.107 239.865 418.408 239.663C418.712 239.459 419.056 239.357 419.439 239.357C419.519 239.357 419.613 239.359 419.721 239.365C419.831 239.371 419.918 239.378 419.98 239.386V240.605C419.929 240.591 419.838 240.575 419.708 240.558C419.577 240.538 419.446 240.528 419.316 240.528C419.015 240.528 418.746 240.592 418.51 240.72C418.277 240.845 418.093 241.02 417.956 241.244C417.82 241.466 417.752 241.719 417.752 242.003V246H416.478ZM423.299 246.128C422.771 246.128 422.299 245.993 421.884 245.723C421.472 245.45 421.148 245.062 420.913 244.56C420.68 244.054 420.563 243.447 420.563 242.74C420.563 242.033 420.681 241.428 420.917 240.925C421.156 240.422 421.482 240.037 421.897 239.77C422.312 239.503 422.782 239.369 423.308 239.369C423.714 239.369 424.04 239.438 424.288 239.574C424.538 239.707 424.731 239.864 424.867 240.043C425.006 240.222 425.114 240.379 425.191 240.516H425.268V237.273H426.542V246H425.298V244.982H425.191C425.114 245.121 425.004 245.28 424.859 245.459C424.717 245.638 424.521 245.794 424.271 245.928C424.021 246.061 423.697 246.128 423.299 246.128ZM423.58 245.041C423.947 245.041 424.256 244.945 424.509 244.751C424.765 244.555 424.958 244.284 425.089 243.938C425.222 243.591 425.289 243.187 425.289 242.727C425.289 242.273 425.224 241.875 425.093 241.534C424.962 241.193 424.771 240.928 424.518 240.737C424.265 240.547 423.952 240.452 423.58 240.452C423.197 240.452 422.877 240.551 422.621 240.75C422.366 240.949 422.173 241.22 422.042 241.564C421.914 241.908 421.85 242.295 421.85 242.727C421.85 243.165 421.915 243.558 422.046 243.908C422.177 244.257 422.37 244.534 422.626 244.739C422.884 244.94 423.202 245.041 423.58 245.041ZM433.265 241.053L432.11 241.257C432.062 241.109 431.985 240.969 431.88 240.835C431.778 240.702 431.639 240.592 431.463 240.507C431.287 240.422 431.066 240.379 430.802 240.379C430.441 240.379 430.14 240.46 429.899 240.622C429.657 240.781 429.537 240.987 429.537 241.24C429.537 241.459 429.618 241.635 429.779 241.768C429.941 241.902 430.203 242.011 430.564 242.097L431.603 242.335C432.206 242.474 432.654 242.689 432.95 242.979C433.245 243.268 433.393 243.645 433.393 244.108C433.393 244.5 433.279 244.849 433.052 245.156C432.828 245.46 432.514 245.699 432.11 245.872C431.71 246.045 431.245 246.132 430.717 246.132C429.984 246.132 429.386 245.976 428.923 245.663C428.46 245.348 428.176 244.901 428.071 244.321L429.302 244.134C429.379 244.455 429.537 244.697 429.775 244.862C430.014 245.024 430.325 245.105 430.708 245.105C431.126 245.105 431.46 245.018 431.71 244.845C431.96 244.669 432.085 244.455 432.085 244.202C432.085 243.997 432.008 243.825 431.855 243.686C431.704 243.547 431.473 243.442 431.16 243.371L430.052 243.128C429.441 242.989 428.99 242.767 428.697 242.463C428.407 242.159 428.262 241.774 428.262 241.308C428.262 240.922 428.37 240.584 428.586 240.294C428.802 240.004 429.1 239.778 429.481 239.616C429.862 239.452 430.298 239.369 430.789 239.369C431.497 239.369 432.054 239.523 432.46 239.83C432.866 240.134 433.135 240.541 433.265 241.053ZM436.452 244.807L436.388 245.271C436.345 245.612 436.273 245.967 436.17 246.337C436.071 246.709 435.967 247.054 435.859 247.372C435.754 247.69 435.668 247.943 435.599 248.131H434.696C434.733 247.955 434.784 247.716 434.849 247.415C434.915 247.116 434.979 246.783 435.041 246.413C435.104 246.044 435.151 245.668 435.182 245.284L435.224 244.807H436.452Z" fill="#333333"/>
<path d="M364.125 264H361.881V256.727H364.224C364.93 256.727 365.534 256.873 366.036 257.164C366.537 257.453 366.922 257.868 367.19 258.411C367.457 258.95 367.591 259.597 367.591 260.349C367.591 261.107 367.456 261.759 367.186 262.306C366.916 262.851 366.523 263.27 366.007 263.563C365.491 263.854 364.864 264 364.125 264ZM362.761 263.219H364.068C364.67 263.219 365.168 263.103 365.563 262.871C365.959 262.639 366.253 262.308 366.447 261.88C366.642 261.451 366.739 260.941 366.739 260.349C366.739 259.762 366.643 259.257 366.451 258.833C366.259 258.407 365.973 258.08 365.592 257.853C365.21 257.623 364.736 257.509 364.168 257.509H362.761V263.219ZM370.56 264.128C370.214 264.128 369.9 264.063 369.619 263.933C369.337 263.8 369.113 263.609 368.947 263.361C368.782 263.11 368.699 262.807 368.699 262.452C368.699 262.139 368.76 261.886 368.884 261.692C369.007 261.495 369.171 261.341 369.377 261.23C369.583 261.119 369.81 261.036 370.059 260.982C370.31 260.925 370.562 260.88 370.815 260.847C371.147 260.804 371.415 260.772 371.621 260.751C371.83 260.727 371.981 260.688 372.076 260.634C372.173 260.579 372.222 260.484 372.222 260.349V260.321C372.222 259.971 372.126 259.698 371.934 259.504C371.745 259.31 371.457 259.213 371.071 259.213C370.671 259.213 370.357 259.301 370.13 259.476C369.903 259.651 369.743 259.838 369.651 260.037L368.855 259.753C368.997 259.421 369.187 259.163 369.423 258.979C369.662 258.792 369.923 258.661 370.205 258.588C370.489 258.512 370.768 258.474 371.043 258.474C371.218 258.474 371.419 258.496 371.646 258.538C371.876 258.579 372.097 258.663 372.31 258.79C372.526 258.918 372.705 259.111 372.847 259.369C372.989 259.627 373.06 259.973 373.06 260.406V264H372.222V263.261H372.179C372.122 263.38 372.027 263.506 371.895 263.641C371.762 263.776 371.586 263.891 371.366 263.986C371.146 264.08 370.877 264.128 370.56 264.128ZM370.688 263.375C371.019 263.375 371.298 263.31 371.526 263.18C371.755 263.049 371.928 262.881 372.044 262.675C372.162 262.469 372.222 262.253 372.222 262.026V261.259C372.186 261.301 372.108 261.34 371.987 261.376C371.869 261.409 371.732 261.438 371.575 261.464C371.421 261.488 371.271 261.509 371.124 261.528C370.98 261.545 370.863 261.559 370.773 261.571C370.555 261.599 370.351 261.646 370.162 261.71C369.975 261.771 369.823 261.865 369.707 261.99C369.594 262.113 369.537 262.281 369.537 262.494C369.537 262.786 369.645 263.006 369.86 263.155C370.078 263.302 370.354 263.375 370.688 263.375ZM378.854 258.545L376.837 264H375.985L373.968 258.545H374.877L376.383 262.892H376.439L377.945 258.545H378.854ZM379.96 264V258.545H380.798V264H379.96ZM380.387 257.636C380.223 257.636 380.082 257.581 379.964 257.469C379.848 257.358 379.79 257.224 379.79 257.068C379.79 256.912 379.848 256.778 379.964 256.667C380.082 256.556 380.223 256.5 380.387 256.5C380.55 256.5 380.69 256.556 380.806 256.667C380.924 256.778 380.983 256.912 380.983 257.068C380.983 257.224 380.924 257.358 380.806 257.469C380.69 257.581 380.55 257.636 380.387 257.636ZM384.393 264.114C383.939 264.114 383.537 263.999 383.189 263.769C382.841 263.537 382.569 263.21 382.373 262.789C382.176 262.365 382.078 261.865 382.078 261.287C382.078 260.714 382.176 260.217 382.373 259.795C382.569 259.374 382.842 259.049 383.193 258.819C383.543 258.589 383.948 258.474 384.407 258.474C384.762 258.474 385.043 258.534 385.249 258.652C385.457 258.768 385.616 258.901 385.725 259.05C385.836 259.196 385.922 259.317 385.984 259.412H386.055V256.727H386.893V264H386.083V263.162H385.984C385.922 263.261 385.835 263.387 385.721 263.538C385.608 263.687 385.445 263.821 385.235 263.94C385.024 264.056 384.743 264.114 384.393 264.114ZM384.507 263.361C384.843 263.361 385.127 263.273 385.359 263.098C385.591 262.92 385.767 262.675 385.888 262.363C386.009 262.048 386.069 261.685 386.069 261.273C386.069 260.866 386.01 260.509 385.892 260.204C385.773 259.896 385.598 259.657 385.366 259.487C385.134 259.314 384.848 259.227 384.507 259.227C384.152 259.227 383.856 259.318 383.619 259.501C383.385 259.681 383.208 259.926 383.09 260.236C382.974 260.544 382.916 260.889 382.916 261.273C382.916 261.661 382.975 262.014 383.093 262.331C383.214 262.646 383.392 262.897 383.626 263.084C383.863 263.268 384.156 263.361 384.507 263.361ZM392.792 264L390.803 256.727H391.698L393.218 262.651H393.289L394.837 256.727H395.831L397.38 262.651H397.451L398.971 256.727H399.865L397.877 264H396.968L395.363 258.205H395.306L393.701 264H392.792ZM401.687 260.719V264H400.849V256.727H401.687V259.398H401.758C401.886 259.116 402.078 258.892 402.333 258.727C402.592 258.558 402.935 258.474 403.363 258.474C403.735 258.474 404.06 258.549 404.34 258.698C404.619 258.845 404.836 259.071 404.99 259.376C405.146 259.679 405.224 260.065 405.224 260.534V264H404.386V260.591C404.386 260.158 404.274 259.823 404.049 259.586C403.826 259.347 403.517 259.227 403.122 259.227C402.847 259.227 402.601 259.285 402.383 259.401C402.168 259.517 401.997 259.687 401.872 259.909C401.749 260.132 401.687 260.402 401.687 260.719ZM406.757 264V258.545H407.595V264H406.757ZM407.183 257.636C407.02 257.636 406.879 257.581 406.761 257.469C406.645 257.358 406.587 257.224 406.587 257.068C406.587 256.912 406.645 256.778 406.761 256.667C406.879 256.556 407.02 256.5 407.183 256.5C407.347 256.5 407.486 256.556 407.602 256.667C407.721 256.778 407.78 256.912 407.78 257.068C407.78 257.224 407.721 257.358 407.602 257.469C407.486 257.581 407.347 257.636 407.183 257.636ZM411.502 258.545V259.256H408.676V258.545H411.502ZM409.5 257.239H410.338V262.438C410.338 262.674 410.372 262.852 410.441 262.97C410.512 263.086 410.602 263.164 410.711 263.205C410.822 263.242 410.939 263.261 411.062 263.261C411.154 263.261 411.23 263.257 411.289 263.247C411.349 263.235 411.396 263.226 411.431 263.219L411.602 263.972C411.545 263.993 411.466 264.014 411.364 264.036C411.262 264.059 411.133 264.071 410.977 264.071C410.74 264.071 410.508 264.02 410.281 263.918C410.056 263.817 409.869 263.661 409.72 263.453C409.573 263.245 409.5 262.982 409.5 262.665V257.239ZM414.991 264.114C414.466 264.114 414.013 263.998 413.631 263.766C413.253 263.531 412.96 263.205 412.754 262.786C412.551 262.364 412.449 261.874 412.449 261.315C412.449 260.757 412.551 260.264 412.754 259.838C412.96 259.41 413.247 259.076 413.614 258.837C413.983 258.595 414.414 258.474 414.906 258.474C415.19 258.474 415.471 258.522 415.748 258.616C416.025 258.711 416.277 258.865 416.504 259.078C416.732 259.289 416.913 259.568 417.048 259.916C417.183 260.264 417.25 260.693 417.25 261.202V261.557H413.045V260.832H416.398C416.398 260.525 416.336 260.25 416.213 260.009C416.092 259.767 415.92 259.576 415.695 259.437C415.472 259.297 415.209 259.227 414.906 259.227C414.572 259.227 414.284 259.31 414.04 259.476C413.798 259.639 413.612 259.852 413.482 260.115C413.352 260.378 413.287 260.66 413.287 260.96V261.443C413.287 261.855 413.358 262.204 413.5 262.491C413.644 262.775 413.844 262.991 414.1 263.141C414.356 263.287 414.653 263.361 414.991 263.361C415.212 263.361 415.411 263.33 415.588 263.268C415.768 263.205 415.923 263.11 416.053 262.984C416.183 262.857 416.284 262.698 416.355 262.509L417.165 262.736C417.08 263.01 416.936 263.252 416.735 263.46C416.534 263.666 416.285 263.827 415.989 263.943C415.693 264.057 415.361 264.114 414.991 264.114ZM365.858 273.545C365.815 273.186 365.643 272.906 365.339 272.707C365.036 272.509 364.665 272.409 364.224 272.409C363.902 272.409 363.621 272.461 363.379 272.565C363.14 272.67 362.953 272.813 362.818 272.995C362.686 273.177 362.619 273.384 362.619 273.616C362.619 273.811 362.665 273.978 362.758 274.117C362.853 274.254 362.973 274.369 363.12 274.462C363.267 274.552 363.421 274.626 363.582 274.685C363.743 274.742 363.891 274.788 364.026 274.824L364.764 275.023C364.954 275.072 365.164 275.141 365.396 275.229C365.631 275.316 365.854 275.436 366.067 275.587C366.283 275.737 366.46 275.928 366.6 276.163C366.74 276.397 366.81 276.685 366.81 277.026C366.81 277.419 366.707 277.774 366.501 278.091C366.297 278.408 365.999 278.66 365.606 278.847C365.215 279.034 364.741 279.128 364.182 279.128C363.661 279.128 363.21 279.044 362.829 278.876C362.45 278.708 362.152 278.473 361.934 278.173C361.719 277.872 361.597 277.523 361.568 277.125H362.477C362.501 277.4 362.593 277.627 362.754 277.807C362.918 277.984 363.124 278.117 363.372 278.205C363.623 278.29 363.893 278.332 364.182 278.332C364.518 278.332 364.82 278.278 365.087 278.169C365.355 278.058 365.567 277.904 365.723 277.707C365.879 277.509 365.957 277.277 365.957 277.011C365.957 276.77 365.89 276.573 365.755 276.422C365.62 276.27 365.442 276.147 365.222 276.053C365.002 275.958 364.764 275.875 364.509 275.804L363.614 275.548C363.045 275.385 362.596 275.152 362.264 274.849C361.933 274.546 361.767 274.149 361.767 273.659C361.767 273.252 361.877 272.897 362.097 272.594C362.32 272.288 362.618 272.052 362.992 271.884C363.369 271.713 363.789 271.628 364.253 271.628C364.722 271.628 365.138 271.712 365.503 271.88C365.867 272.046 366.156 272.273 366.369 272.562C366.585 272.851 366.698 273.179 366.71 273.545H365.858ZM370.431 279.114C369.905 279.114 369.452 278.998 369.071 278.766C368.692 278.531 368.4 278.205 368.194 277.786C367.99 277.364 367.888 276.874 367.888 276.315C367.888 275.757 367.99 275.264 368.194 274.838C368.4 274.41 368.686 274.076 369.053 273.837C369.422 273.595 369.853 273.474 370.346 273.474C370.63 273.474 370.91 273.522 371.187 273.616C371.464 273.711 371.716 273.865 371.944 274.078C372.171 274.289 372.352 274.568 372.487 274.916C372.622 275.264 372.689 275.693 372.689 276.202V276.557H368.485V275.832H371.837C371.837 275.525 371.776 275.25 371.653 275.009C371.532 274.767 371.359 274.576 371.134 274.437C370.912 274.297 370.649 274.227 370.346 274.227C370.012 274.227 369.723 274.31 369.479 274.476C369.238 274.639 369.052 274.852 368.922 275.115C368.791 275.378 368.726 275.66 368.726 275.96V276.443C368.726 276.855 368.797 277.204 368.939 277.491C369.084 277.775 369.284 277.991 369.54 278.141C369.795 278.287 370.092 278.361 370.431 278.361C370.651 278.361 370.85 278.33 371.028 278.268C371.207 278.205 371.363 278.11 371.493 277.984C371.623 277.857 371.724 277.698 371.795 277.509L372.604 277.736C372.519 278.01 372.376 278.252 372.175 278.46C371.973 278.666 371.725 278.827 371.429 278.943C371.133 279.057 370.8 279.114 370.431 279.114ZM374.802 275.719V279H373.964V273.545H374.774V274.398H374.845C374.973 274.121 375.167 273.898 375.427 273.73C375.688 273.56 376.024 273.474 376.436 273.474C376.805 273.474 377.128 273.55 377.405 273.702C377.682 273.851 377.898 274.078 378.052 274.384C378.206 274.687 378.282 275.07 378.282 275.534V279H377.444V275.591C377.444 275.162 377.333 274.829 377.111 274.589C376.888 274.348 376.583 274.227 376.194 274.227C375.927 274.227 375.688 274.285 375.477 274.401C375.269 274.517 375.104 274.687 374.983 274.909C374.863 275.132 374.802 275.402 374.802 275.719ZM381.874 279.114C381.419 279.114 381.018 278.999 380.67 278.769C380.322 278.537 380.049 278.21 379.853 277.789C379.656 277.365 379.558 276.865 379.558 276.287C379.558 275.714 379.656 275.217 379.853 274.795C380.049 274.374 380.323 274.049 380.673 273.819C381.024 273.589 381.429 273.474 381.888 273.474C382.243 273.474 382.523 273.534 382.729 273.652C382.938 273.768 383.096 273.901 383.205 274.05C383.317 274.196 383.403 274.317 383.464 274.412H383.536V271.727H384.374V279H383.564V278.162H383.464C383.403 278.261 383.315 278.387 383.202 278.538C383.088 278.687 382.926 278.821 382.715 278.94C382.504 279.056 382.224 279.114 381.874 279.114ZM381.987 278.361C382.323 278.361 382.607 278.273 382.839 278.098C383.071 277.92 383.248 277.675 383.369 277.363C383.489 277.048 383.55 276.685 383.55 276.273C383.55 275.866 383.491 275.509 383.372 275.204C383.254 274.896 383.079 274.657 382.847 274.487C382.615 274.314 382.328 274.227 381.987 274.227C381.632 274.227 381.336 274.318 381.099 274.501C380.865 274.681 380.689 274.926 380.57 275.236C380.454 275.544 380.396 275.889 380.396 276.273C380.396 276.661 380.455 277.014 380.574 277.331C380.695 277.646 380.872 277.897 381.107 278.084C381.343 278.268 381.637 278.361 381.987 278.361ZM386.138 279V271.727H388.596C389.164 271.727 389.63 271.824 389.995 272.018C390.36 272.21 390.629 272.474 390.805 272.81C390.98 273.147 391.067 273.529 391.067 273.957C391.067 274.386 390.98 274.766 390.805 275.097C390.629 275.429 390.361 275.689 389.999 275.879C389.636 276.066 389.174 276.159 388.61 276.159H386.621V275.364H388.582C388.97 275.364 389.282 275.307 389.519 275.193C389.758 275.08 389.931 274.919 390.038 274.71C390.147 274.5 390.201 274.249 390.201 273.957C390.201 273.666 390.147 273.412 390.038 273.194C389.929 272.976 389.755 272.808 389.516 272.69C389.277 272.569 388.96 272.509 388.567 272.509H387.019V279H386.138ZM389.562 275.733L391.352 279H390.329L388.567 275.733H389.562ZM392.421 279V273.545H393.259V279H392.421ZM392.847 272.636C392.684 272.636 392.543 272.581 392.425 272.469C392.309 272.358 392.251 272.224 392.251 272.068C392.251 271.912 392.309 271.778 392.425 271.667C392.543 271.556 392.684 271.5 392.847 271.5C393.011 271.5 393.151 271.556 393.267 271.667C393.385 271.778 393.444 271.912 393.444 272.068C393.444 272.224 393.385 272.358 393.267 272.469C393.151 272.581 393.011 272.636 392.847 272.636ZM396.996 281.159C396.591 281.159 396.243 281.107 395.952 281.003C395.661 280.901 395.418 280.766 395.224 280.598C395.032 280.432 394.88 280.255 394.766 280.065L395.434 279.597C395.509 279.696 395.605 279.81 395.721 279.938C395.837 280.068 395.996 280.18 396.197 280.275C396.401 280.372 396.667 280.42 396.996 280.42C397.436 280.42 397.8 280.314 398.086 280.101C398.373 279.888 398.516 279.554 398.516 279.099V277.991H398.445C398.383 278.091 398.296 278.214 398.182 278.361C398.071 278.505 397.91 278.634 397.699 278.748C397.491 278.859 397.209 278.915 396.854 278.915C396.414 278.915 396.018 278.811 395.668 278.602C395.32 278.394 395.044 278.091 394.841 277.693C394.639 277.295 394.539 276.812 394.539 276.244C394.539 275.686 394.637 275.199 394.833 274.785C395.03 274.368 395.303 274.046 395.654 273.819C396.004 273.589 396.409 273.474 396.868 273.474C397.223 273.474 397.505 273.534 397.713 273.652C397.924 273.768 398.085 273.901 398.196 274.05C398.31 274.196 398.398 274.317 398.459 274.412H398.544V273.545H399.354V279.156C399.354 279.625 399.248 280.006 399.034 280.3C398.824 280.596 398.54 280.812 398.182 280.95C397.827 281.089 397.432 281.159 396.996 281.159ZM396.968 278.162C397.304 278.162 397.588 278.085 397.82 277.931C398.052 277.777 398.228 277.556 398.349 277.267C398.47 276.978 398.53 276.633 398.53 276.23C398.53 275.837 398.471 275.49 398.353 275.19C398.234 274.889 398.059 274.653 397.827 274.483C397.595 274.312 397.309 274.227 396.968 274.227C396.613 274.227 396.317 274.317 396.08 274.497C395.846 274.677 395.669 274.919 395.551 275.222C395.435 275.525 395.377 275.861 395.377 276.23C395.377 276.609 395.436 276.944 395.554 277.235C395.675 277.524 395.853 277.751 396.087 277.917C396.324 278.08 396.617 278.162 396.968 278.162ZM401.726 275.719V279H400.888V271.727H401.726V274.398H401.797C401.925 274.116 402.117 273.892 402.373 273.727C402.631 273.558 402.974 273.474 403.402 273.474C403.774 273.474 404.1 273.549 404.379 273.698C404.658 273.845 404.875 274.071 405.029 274.376C405.185 274.679 405.263 275.065 405.263 275.534V279H404.425V275.591C404.425 275.158 404.313 274.823 404.088 274.586C403.865 274.347 403.556 274.227 403.161 274.227C402.886 274.227 402.64 274.285 402.422 274.401C402.207 274.517 402.036 274.687 401.911 274.909C401.788 275.132 401.726 275.402 401.726 275.719ZM409.169 273.545V274.256H406.342V273.545H409.169ZM407.166 272.239H408.004V277.438C408.004 277.674 408.038 277.852 408.107 277.97C408.178 278.086 408.268 278.164 408.377 278.205C408.488 278.242 408.605 278.261 408.728 278.261C408.82 278.261 408.896 278.257 408.955 278.247C409.015 278.235 409.062 278.226 409.097 278.219L409.268 278.972C409.211 278.993 409.132 279.014 409.03 279.036C408.928 279.059 408.799 279.071 408.643 279.071C408.406 279.071 408.174 279.02 407.947 278.918C407.722 278.817 407.535 278.661 407.386 278.453C407.239 278.245 407.166 277.982 407.166 277.665V272.239Z" fill="#4F4F4F"/>
<rect x="360" y="114" width="184" height="8" rx="4" fill="#F2F2F2"/>
<rect x="360" y="130" width="156" height="8" rx="4" fill="#F2F2F2"/>
<rect x="360" y="146" width="116" height="8" rx="4" fill="#F2F2F2"/>
<rect x="360" y="178" width="184" height="8" rx="4" fill="#F2F2F2"/>
<rect x="360" y="194" width="156" height="8" rx="4" fill="#F2F2F2"/>
<rect x="360" y="210" width="116" height="8" rx="4" fill="#F2F2F2"/>
<path d="M363.784 96H360.959V87.2727H363.874C364.729 87.2727 365.463 87.4474 366.077 87.7969C366.69 88.1435 367.161 88.642 367.487 89.2926C367.817 89.9403 367.982 90.7173 367.982 91.6236C367.982 92.5327 367.815 93.3139 367.483 93.9673C367.153 94.6207 366.676 95.1236 366.051 95.4759C365.426 95.8253 364.67 96 363.784 96ZM362.276 94.8494H363.712C364.376 94.8494 364.929 94.7244 365.369 94.4744C365.81 94.2216 366.139 93.8565 366.358 93.3793C366.577 92.8991 366.686 92.3139 366.686 91.6236C366.686 90.9389 366.577 90.358 366.358 89.8807C366.142 89.4034 365.82 89.0412 365.391 88.794C364.962 88.5469 364.429 88.4233 363.793 88.4233H362.276V94.8494ZM372.338 96.1321C371.693 96.1321 371.137 95.9943 370.672 95.7188C370.208 95.4403 369.85 95.0497 369.598 94.5469C369.348 94.0412 369.223 93.4489 369.223 92.7699C369.223 92.0994 369.348 91.5085 369.598 90.9972C369.85 90.4858 370.203 90.0866 370.654 89.7997C371.109 89.5128 371.64 89.3693 372.248 89.3693C372.618 89.3693 372.975 89.4304 373.322 89.5526C373.669 89.6747 373.98 89.8665 374.255 90.1278C374.531 90.3892 374.748 90.7287 374.907 91.1463C375.066 91.5611 375.146 92.0653 375.146 92.6591V93.1108H369.943V92.1562H373.897C373.897 91.821 373.829 91.5241 373.693 91.2656C373.556 91.0043 373.365 90.7983 373.118 90.6477C372.873 90.4972 372.586 90.4219 372.257 90.4219C371.899 90.4219 371.586 90.5099 371.319 90.6861C371.055 90.8594 370.85 91.0866 370.706 91.3679C370.564 91.6463 370.493 91.9489 370.493 92.2756V93.0213C370.493 93.4588 370.569 93.831 370.723 94.1378C370.879 94.4446 371.096 94.679 371.375 94.8409C371.653 95 371.978 95.0795 372.35 95.0795C372.592 95.0795 372.812 95.0455 373.011 94.9773C373.21 94.9062 373.382 94.8011 373.527 94.6619C373.672 94.5227 373.782 94.3509 373.859 94.1463L375.065 94.3636C374.968 94.7187 374.795 95.0298 374.545 95.2969C374.298 95.5611 373.987 95.767 373.612 95.9148C373.24 96.0597 372.815 96.1321 372.338 96.1321ZM378.464 96.1449C378.05 96.1449 377.675 96.0682 377.339 95.9148C377.004 95.7585 376.739 95.5327 376.543 95.2372C376.349 94.9418 376.253 94.5795 376.253 94.1506C376.253 93.7812 376.324 93.4773 376.466 93.2386C376.608 93 376.8 92.8111 377.041 92.6719C377.283 92.5327 377.553 92.4276 377.851 92.3565C378.149 92.2855 378.453 92.2315 378.763 92.1946C379.155 92.1491 379.473 92.1122 379.717 92.0838C379.962 92.0526 380.139 92.0028 380.25 91.9347C380.361 91.8665 380.416 91.7557 380.416 91.6023V91.5724C380.416 91.2003 380.311 90.9119 380.101 90.7074C379.893 90.5028 379.584 90.4006 379.172 90.4006C378.743 90.4006 378.405 90.4957 378.158 90.6861C377.913 90.8736 377.744 91.0824 377.651 91.3125L376.453 91.0398C376.595 90.642 376.803 90.321 377.075 90.0767C377.351 89.8295 377.668 89.6506 378.026 89.5398C378.384 89.4261 378.76 89.3693 379.155 89.3693C379.416 89.3693 379.693 89.4006 379.986 89.4631C380.281 89.5227 380.557 89.6335 380.812 89.7955C381.071 89.9574 381.283 90.1889 381.447 90.4901C381.612 90.7884 381.695 91.1761 381.695 91.6534V96H380.45V95.1051H380.399C380.317 95.2699 380.193 95.4318 380.028 95.5909C379.864 95.75 379.652 95.8821 379.393 95.9872C379.135 96.0923 378.825 96.1449 378.464 96.1449ZM378.741 95.1222C379.094 95.1222 379.395 95.0526 379.645 94.9134C379.898 94.7741 380.089 94.5923 380.22 94.3679C380.354 94.1406 380.42 93.8977 380.42 93.6392V92.7955C380.375 92.8409 380.287 92.8835 380.156 92.9233C380.028 92.9602 379.882 92.9929 379.717 93.0213C379.553 93.0469 379.392 93.071 379.236 93.0938C379.08 93.1136 378.949 93.1307 378.844 93.1449C378.597 93.1761 378.371 93.2287 378.166 93.3026C377.964 93.3764 377.803 93.483 377.68 93.6222C377.561 93.7585 377.501 93.9403 377.501 94.1676C377.501 94.483 377.618 94.7216 377.851 94.8835C378.084 95.0426 378.381 95.1222 378.741 95.1222ZM383.392 96V89.4545H384.623V90.4943H384.691C384.811 90.142 385.021 89.8651 385.322 89.6634C385.626 89.4588 385.97 89.3565 386.353 89.3565C386.433 89.3565 386.527 89.3594 386.635 89.3651C386.745 89.3707 386.832 89.3778 386.895 89.3864V90.6051C386.843 90.5909 386.752 90.5753 386.622 90.5582C386.491 90.5384 386.36 90.5284 386.23 90.5284C385.929 90.5284 385.66 90.5923 385.424 90.7202C385.191 90.8452 385.007 91.0199 384.87 91.2443C384.734 91.4659 384.666 91.7187 384.666 92.0028V96H383.392ZM392.012 96H390.615L393.755 87.2727H395.277L398.417 96H397.02L394.552 88.858H394.484L392.012 96ZM392.247 92.5824H396.781V93.6903H392.247V92.5824ZM400.849 87.2727V96H399.575V87.2727H400.849ZM403.838 87.2727V96H402.564V87.2727H403.838ZM408.373 96.1321C407.728 96.1321 407.173 95.9943 406.707 95.7188C406.244 95.4403 405.886 95.0497 405.633 94.5469C405.383 94.0412 405.258 93.4489 405.258 92.7699C405.258 92.0994 405.383 91.5085 405.633 90.9972C405.886 90.4858 406.238 90.0866 406.69 89.7997C407.144 89.5128 407.675 89.3693 408.283 89.3693C408.653 89.3693 409.011 89.4304 409.357 89.5526C409.704 89.6747 410.015 89.8665 410.29 90.1278C410.566 90.3892 410.783 90.7287 410.942 91.1463C411.102 91.5611 411.181 92.0653 411.181 92.6591V93.1108H405.978V92.1562H409.933C409.933 91.821 409.864 91.5241 409.728 91.2656C409.592 91.0043 409.4 90.7983 409.153 90.6477C408.908 90.4972 408.621 90.4219 408.292 90.4219C407.934 90.4219 407.621 90.5099 407.354 90.6861C407.09 90.8594 406.886 91.0866 406.741 91.3679C406.599 91.6463 406.528 91.9489 406.528 92.2756V93.0213C406.528 93.4588 406.604 93.831 406.758 94.1378C406.914 94.4446 407.131 94.679 407.41 94.8409C407.688 95 408.013 95.0795 408.386 95.0795C408.627 95.0795 408.847 95.0455 409.046 94.9773C409.245 94.9062 409.417 94.8011 409.562 94.6619C409.707 94.5227 409.817 94.3509 409.894 94.1463L411.1 94.3636C411.004 94.7187 410.83 95.0298 410.58 95.2969C410.333 95.5611 410.022 95.767 409.647 95.9148C409.275 96.0597 408.85 96.1321 408.373 96.1321ZM413.869 92.1136V96H412.595V89.4545H413.818V90.5199H413.899C414.049 90.1733 414.285 89.8949 414.606 89.6847C414.93 89.4744 415.338 89.3693 415.829 89.3693C416.275 89.3693 416.666 89.4631 417.001 89.6506C417.336 89.8352 417.596 90.1108 417.781 90.4773C417.966 90.8437 418.058 91.2969 418.058 91.8366V96H416.784V91.9901C416.784 91.5156 416.66 91.1449 416.413 90.8778C416.166 90.608 415.826 90.473 415.395 90.473C415.099 90.473 414.836 90.5369 414.606 90.6648C414.379 90.7926 414.199 90.9801 414.065 91.2273C413.934 91.4716 413.869 91.767 413.869 92.1136ZM424.754 96L422.333 87.2727H423.718L425.418 94.0312H425.499L427.268 87.2727H428.64L430.408 94.0355H430.489L432.185 87.2727H433.575L431.15 96H429.825L427.988 89.4631H427.92L426.083 96H424.754ZM434.673 96V89.4545H435.947V96H434.673ZM435.316 88.4446C435.095 88.4446 434.904 88.3707 434.745 88.223C434.589 88.0724 434.511 87.8935 434.511 87.6861C434.511 87.4759 434.589 87.2969 434.745 87.1491C434.904 86.9986 435.095 86.9233 435.316 86.9233C435.538 86.9233 435.727 86.9986 435.883 87.1491C436.042 87.2969 436.122 87.4759 436.122 87.6861C436.122 87.8935 436.042 88.0724 435.883 88.223C435.727 88.3707 435.538 88.4446 435.316 88.4446ZM438.935 87.2727V96H437.661V87.2727H438.935ZM441.924 87.2727V96H440.65V87.2727H441.924ZM443.638 96V89.4545H444.912V96H443.638ZM444.281 88.4446C444.06 88.4446 443.869 88.3707 443.71 88.223C443.554 88.0724 443.476 87.8935 443.476 87.6861C443.476 87.4759 443.554 87.2969 443.71 87.1491C443.869 86.9986 444.06 86.9233 444.281 86.9233C444.503 86.9233 444.692 86.9986 444.848 87.1491C445.007 87.2969 445.087 87.4759 445.087 87.6861C445.087 87.8935 445.007 88.0724 444.848 88.223C444.692 88.3707 444.503 88.4446 444.281 88.4446ZM451.531 91.0526L450.376 91.2571C450.328 91.1094 450.251 90.9687 450.146 90.8352C450.044 90.7017 449.904 90.5923 449.728 90.5071C449.552 90.4219 449.332 90.3793 449.068 90.3793C448.707 90.3793 448.406 90.4602 448.164 90.6222C447.923 90.7812 447.802 90.9872 447.802 91.2401C447.802 91.4588 447.883 91.6349 448.045 91.7685C448.207 91.902 448.468 92.0114 448.829 92.0966L449.869 92.3352C450.471 92.4744 450.92 92.6889 451.216 92.9787C451.511 93.2685 451.659 93.6449 451.659 94.108C451.659 94.5 451.545 94.8494 451.318 95.1562C451.093 95.4602 450.779 95.6989 450.376 95.8722C449.975 96.0455 449.511 96.1321 448.983 96.1321C448.25 96.1321 447.652 95.9759 447.189 95.6634C446.725 95.348 446.441 94.9006 446.336 94.321L447.568 94.1335C447.645 94.4545 447.802 94.6974 448.041 94.8622C448.279 95.0241 448.591 95.1051 448.974 95.1051C449.392 95.1051 449.725 95.0185 449.975 94.8452C450.225 94.669 450.35 94.4545 450.35 94.2017C450.35 93.9972 450.274 93.8253 450.12 93.6861C449.97 93.5469 449.738 93.4418 449.426 93.3707L448.318 93.1278C447.707 92.9886 447.255 92.767 446.963 92.4631C446.673 92.1591 446.528 91.7741 446.528 91.3082C446.528 90.9219 446.636 90.5838 446.852 90.294C447.068 90.0043 447.366 89.7784 447.747 89.6165C448.127 89.4517 448.564 89.3693 449.055 89.3693C449.762 89.3693 450.319 89.5227 450.725 89.8295C451.132 90.1335 451.4 90.5412 451.531 91.0526ZM454.717 94.8068L454.653 95.2713C454.611 95.6122 454.538 95.9673 454.436 96.3366C454.337 96.7088 454.233 97.054 454.125 97.3722C454.02 97.6903 453.933 97.9432 453.865 98.1307H452.962C452.999 97.9545 453.05 97.7159 453.115 97.4148C453.18 97.1165 453.244 96.7827 453.307 96.4134C453.369 96.044 453.416 95.6676 453.447 95.2841L453.49 94.8068H454.717Z" fill="#333333"/>
<path d="M414.283 63.2378C413.388 63.2378 412.596 63.0793 411.905 62.7622C411.214 62.4451 410.67 61.9807 410.274 61.3692C409.889 60.7463 409.696 59.9932 409.696 59.1098V58.6851H411.514V59.1098C411.514 59.9479 411.763 60.5764 412.262 60.9955C412.771 61.4145 413.445 61.624 414.283 61.624C415.133 61.624 415.772 61.4485 416.203 61.0974C416.633 60.735 416.848 60.2706 416.848 59.7044C416.848 59.3307 416.746 59.0249 416.543 58.7871C416.339 58.5492 416.05 58.3624 415.676 58.2265C415.302 58.0792 414.855 57.9433 414.334 57.8188L413.706 57.6659C412.947 57.4847 412.284 57.2638 411.718 57.0034C411.163 56.7316 410.733 56.3748 410.427 55.9331C410.121 55.4915 409.968 54.9252 409.968 54.2344C409.968 53.5322 410.138 52.932 410.478 52.4337C410.829 51.9354 411.31 51.5503 411.922 51.2785C412.533 51.0067 413.253 50.8708 414.079 50.8708C414.906 50.8708 415.642 51.0124 416.288 51.2955C416.945 51.5786 417.46 51.9977 417.834 52.5526C418.207 53.1075 418.394 53.804 418.394 54.6421V55.2536H416.576V54.6421C416.576 54.1324 416.469 53.7191 416.254 53.402C416.05 53.0849 415.761 52.8527 415.387 52.7055C415.014 52.5583 414.578 52.4846 414.079 52.4846C413.355 52.4846 412.788 52.6375 412.381 52.9433C411.984 53.2378 411.786 53.6511 411.786 54.1834C411.786 54.5458 411.871 54.8459 412.041 55.0838C412.222 55.3103 412.482 55.4971 412.822 55.6443C413.162 55.7916 413.587 55.9218 414.096 56.0351L414.725 56.1879C415.495 56.3578 416.174 56.5787 416.763 56.8505C417.352 57.1109 417.817 57.4677 418.156 57.9207C418.496 58.3737 418.666 58.9569 418.666 59.6704C418.666 60.3839 418.485 61.0068 418.122 61.5391C417.771 62.0713 417.267 62.4904 416.61 62.7961C415.954 63.0906 415.178 63.2378 414.283 63.2378ZM424.482 63.2378C423.633 63.2378 422.891 63.0623 422.257 62.7112C421.623 62.3488 421.124 61.8448 420.762 61.1993C420.411 60.5425 420.235 59.7837 420.235 58.923V58.7191C420.235 57.8471 420.411 57.0883 420.762 56.4428C421.113 55.7859 421.6 55.2819 422.223 54.9309C422.857 54.5685 423.587 54.3873 424.414 54.3873C425.218 54.3873 425.92 54.5685 426.521 54.9309C427.132 55.2819 427.608 55.7746 427.948 56.4088C428.287 57.043 428.457 57.7848 428.457 58.6342V59.2967H422.019C422.042 60.0328 422.285 60.6217 422.749 61.0634C423.225 61.4938 423.814 61.7089 424.516 61.7089C425.173 61.7089 425.666 61.5617 425.994 61.2673C426.334 60.9728 426.594 60.6331 426.775 60.248L428.219 60.9955C428.061 61.3126 427.829 61.6467 427.523 61.9977C427.228 62.3488 426.838 62.6433 426.351 62.8811C425.864 63.1189 425.241 63.2378 424.482 63.2378ZM422.036 57.9547H426.674C426.628 57.3205 426.402 56.8278 425.994 56.4767C425.586 56.1143 425.054 55.9331 424.397 55.9331C423.74 55.9331 423.202 56.1143 422.783 56.4767C422.376 56.8278 422.127 57.3205 422.036 57.9547ZM430.563 63V54.6251H432.279V55.8822H432.551C432.71 55.5424 432.993 55.2253 433.4 54.9309C433.808 54.6364 434.414 54.4892 435.218 54.4892C435.852 54.4892 436.413 54.6307 436.9 54.9139C437.398 55.197 437.789 55.599 438.072 56.12C438.355 56.6296 438.497 57.2468 438.497 57.9717V63H436.747V58.1076C436.747 57.3827 436.566 56.8505 436.203 56.5107C435.841 56.1596 435.343 55.9841 434.708 55.9841C433.984 55.9841 433.4 56.2219 432.959 56.6976C432.528 57.1732 432.313 57.8641 432.313 58.7701V63H430.563ZM444.48 63.2378C443.789 63.2378 443.15 63.068 442.561 62.7282C441.972 62.3884 441.496 61.9015 441.134 61.2673C440.783 60.6217 440.607 59.846 440.607 58.94V58.6851C440.607 57.7905 440.783 57.0203 441.134 56.3748C441.485 55.7293 441.955 55.2366 442.544 54.8969C443.133 54.5571 443.778 54.3873 444.48 54.3873C445.024 54.3873 445.477 54.4552 445.839 54.5911C446.213 54.727 446.519 54.9026 446.757 55.1177C446.994 55.3216 447.176 55.5368 447.3 55.7633H447.572V51.1086H449.322V63H447.606V61.8109H447.334C447.119 62.1733 446.791 62.5017 446.349 62.7961C445.919 63.0906 445.296 63.2378 444.48 63.2378ZM444.973 61.7089C445.732 61.7089 446.355 61.4654 446.842 60.9785C447.34 60.4915 447.589 59.795 447.589 58.889V58.7361C447.589 57.8414 447.346 57.1506 446.859 56.6636C446.372 56.1766 445.743 55.9331 444.973 55.9331C444.225 55.9331 443.603 56.1766 443.104 56.6636C442.617 57.1506 442.374 57.8414 442.374 58.7361V58.889C442.374 59.795 442.617 60.4915 443.104 60.9785C443.603 61.4654 444.225 61.7089 444.973 61.7089ZM451.847 63V51.1086H456.841C457.577 51.1086 458.223 51.2389 458.778 51.4994C459.344 51.7485 459.78 52.1109 460.086 52.5866C460.403 53.0622 460.561 53.6285 460.561 54.2853V54.4722C460.561 55.2197 460.38 55.8199 460.018 56.2729C459.667 56.7146 459.236 57.026 458.727 57.2072V57.479C459.157 57.5017 459.502 57.6489 459.763 57.9207C460.023 58.1812 460.154 58.5606 460.154 59.0589V63H458.302V59.3137C458.302 59.0079 458.223 58.7644 458.064 58.5832C457.906 58.402 457.651 58.3114 457.3 58.3114H453.681V63H451.847ZM453.681 56.6466H456.637C457.294 56.6466 457.804 56.4824 458.166 56.154C458.528 55.8142 458.71 55.3556 458.71 54.778V54.6421C458.71 54.0645 458.528 53.6115 458.166 53.2831C457.815 52.9433 457.305 52.7734 456.637 52.7734H453.681V56.6466ZM462.631 63V54.6251H464.381V63H462.631ZM463.514 53.4869C463.175 53.4869 462.886 53.3793 462.648 53.1641C462.421 52.9376 462.308 52.6489 462.308 52.2978C462.308 51.9467 462.421 51.6636 462.648 51.4484C462.886 51.2219 463.175 51.1086 463.514 51.1086C463.865 51.1086 464.154 51.2219 464.381 51.4484C464.607 51.6636 464.72 51.9467 464.72 52.2978C464.72 52.6489 464.607 52.9376 464.381 53.1641C464.154 53.3793 463.865 53.4869 463.514 53.4869ZM466.57 58.855V58.6002C466.57 57.7168 466.745 56.9637 467.096 56.3408C467.459 55.718 467.934 55.2366 468.523 54.8969C469.112 54.5571 469.758 54.3873 470.46 54.3873C471.275 54.3873 471.898 54.5401 472.329 54.8459C472.77 55.1517 473.093 55.4801 473.297 55.8312H473.569V54.6251H475.267V64.7158C475.267 65.2254 475.114 65.6331 474.809 65.9389C474.514 66.2446 474.107 66.3975 473.586 66.3975H467.946V64.8686H473.042C473.37 64.8686 473.535 64.6988 473.535 64.359V61.692H473.263C473.138 61.8958 472.963 62.1053 472.736 62.3205C472.51 62.5357 472.21 62.7112 471.836 62.8471C471.473 62.983 471.015 63.051 470.46 63.051C469.758 63.051 469.107 62.8867 468.506 62.5583C467.917 62.2186 467.447 61.7373 467.096 61.1144C466.745 60.4802 466.57 59.727 466.57 58.855ZM470.936 61.5221C471.694 61.5221 472.317 61.2842 472.804 60.8086C473.302 60.3216 473.552 59.6534 473.552 58.804V58.6512C473.552 57.7791 473.308 57.1109 472.821 56.6466C472.334 56.171 471.706 55.9331 470.936 55.9331C470.188 55.9331 469.565 56.171 469.067 56.6466C468.58 57.1109 468.336 57.7791 468.336 58.6512V58.804C468.336 59.6534 468.58 60.3216 469.067 60.8086C469.565 61.2842 470.188 61.5221 470.936 61.5221ZM477.844 63V51.1086H479.593V55.8142H479.865C479.978 55.599 480.137 55.3895 480.341 55.1857C480.556 54.9818 480.833 54.8176 481.173 54.693C481.524 54.5571 481.966 54.4892 482.498 54.4892C483.132 54.4892 483.693 54.6307 484.18 54.9139C484.678 55.197 485.069 55.599 485.352 56.12C485.635 56.6296 485.777 57.2468 485.777 57.9717V63H484.027V58.1076C484.027 57.3827 483.846 56.8505 483.483 56.5107C483.121 56.1596 482.623 55.9841 481.989 55.9841C481.264 55.9841 480.68 56.2219 480.239 56.6976C479.808 57.1732 479.593 57.8641 479.593 58.7701V63H477.844ZM491.205 63C490.696 63 490.288 62.8471 489.982 62.5413C489.688 62.2356 489.541 61.8279 489.541 61.3182V56.103H487.23V54.6251H489.541V51.8561H491.29V54.6251H493.788V56.103H491.29V61.0124C491.29 61.3522 491.449 61.5221 491.766 61.5221H493.516V63H491.205Z" fill="#0867D0"/>
<g filter="url(#filter1_d_16_133)">
<rect x="24" y="175" width="291" height="311" rx="5" fill="white"/>
<rect x="24.5" y="175.5" width="290" height="310" rx="4.5" stroke="#DCDCDC"/>
</g>
<rect x="40.5" y="228.5" width="258" height="39" rx="2.5" fill="#FCFCFC" stroke="#D9D9D9"/>
<rect x="40" y="218" width="56" height="4" rx="2" fill="#AEADAD"/>
<rect x="40.5" y="294.5" width="258" height="39" rx="2.5" fill="#FCFCFC" stroke="#D9D9D9"/>
<rect x="40" y="284" width="56" height="4" rx="2" fill="#AEADAD"/>
<rect x="40.5" y="360.5" width="258" height="39" rx="2.5" fill="#FCFCFC" stroke="#D9D9D9"/>
<rect x="40" y="350" width="56" height="4" rx="2" fill="#AEADAD"/>
<rect x="24" y="201" width="291" height="1" fill="#DCDCDC"/>
<circle cx="37" cy="188" r="3" fill="#F3605D"/>
<circle cx="47" cy="188" r="3" fill="#FCBB42"/>
<circle cx="57" cy="188" r="3" fill="#2DD444"/>
<rect x="200" y="431" width="99" height="39" rx="4" fill="#2C4BFF"/>
<path d="M224.581 448.037C224.478 447.714 224.34 447.425 224.166 447.169C223.995 446.91 223.791 446.69 223.553 446.509C223.315 446.324 223.044 446.184 222.738 446.088C222.436 445.992 222.104 445.944 221.742 445.944C221.128 445.944 220.574 446.102 220.08 446.418C219.587 446.734 219.196 447.197 218.908 447.808C218.624 448.415 218.482 449.159 218.482 450.04C218.482 450.924 218.626 451.672 218.914 452.283C219.201 452.893 219.596 453.357 220.096 453.673C220.597 453.989 221.167 454.147 221.806 454.147C222.399 454.147 222.916 454.026 223.356 453.785C223.8 453.543 224.143 453.202 224.384 452.762C224.629 452.318 224.752 451.796 224.752 451.196L225.178 451.276H222.056V449.918H226.344V451.159C226.344 452.075 226.149 452.87 225.759 453.545C225.371 454.216 224.835 454.735 224.15 455.1C223.468 455.466 222.687 455.649 221.806 455.649C220.819 455.649 219.952 455.422 219.207 454.967C218.464 454.513 217.886 453.868 217.47 453.034C217.055 452.196 216.847 451.201 216.847 450.051C216.847 449.181 216.968 448.4 217.209 447.707C217.451 447.015 217.79 446.427 218.227 445.944C218.667 445.457 219.184 445.086 219.777 444.831C220.373 444.571 221.025 444.442 221.732 444.442C222.321 444.442 222.87 444.529 223.377 444.703C223.889 444.877 224.343 445.124 224.741 445.443C225.142 445.763 225.474 446.143 225.737 446.583C226 447.02 226.178 447.505 226.27 448.037H224.581ZM231.832 455.665C231.026 455.665 230.332 455.493 229.75 455.148C229.171 454.8 228.723 454.312 228.407 453.684C228.095 453.051 227.938 452.311 227.938 451.462C227.938 450.624 228.095 449.886 228.407 449.246C228.723 448.607 229.164 448.108 229.728 447.75C230.296 447.391 230.96 447.212 231.72 447.212C232.182 447.212 232.63 447.288 233.063 447.441C233.496 447.593 233.885 447.833 234.229 448.16C234.574 448.487 234.845 448.911 235.044 449.433C235.243 449.951 235.343 450.582 235.343 451.324V451.888H228.839V450.695H233.782C233.782 450.276 233.697 449.905 233.526 449.582C233.356 449.255 233.116 448.998 232.807 448.81C232.502 448.621 232.143 448.527 231.731 448.527C231.284 448.527 230.893 448.637 230.559 448.858C230.229 449.074 229.973 449.358 229.792 449.71C229.615 450.058 229.526 450.436 229.526 450.844V451.777C229.526 452.324 229.622 452.789 229.813 453.172C230.009 453.556 230.28 453.849 230.628 454.051C230.976 454.25 231.383 454.349 231.848 454.349C232.15 454.349 232.425 454.307 232.674 454.222C232.922 454.133 233.137 454.001 233.318 453.827C233.5 453.653 233.638 453.439 233.734 453.183L235.241 453.455C235.121 453.898 234.904 454.287 234.592 454.621C234.283 454.951 233.894 455.209 233.425 455.393C232.96 455.575 232.429 455.665 231.832 455.665ZM238.702 450.642V455.5H237.11V447.318H238.638V448.65H238.74C238.928 448.217 239.223 447.869 239.624 447.606C240.029 447.343 240.538 447.212 241.153 447.212C241.71 447.212 242.199 447.329 242.618 447.563C243.037 447.794 243.362 448.138 243.592 448.597C243.823 449.055 243.939 449.621 243.939 450.296V455.5H242.346V450.488C242.346 449.895 242.191 449.431 241.882 449.097C241.574 448.76 241.149 448.591 240.609 448.591C240.24 448.591 239.912 448.671 239.624 448.831C239.34 448.991 239.114 449.225 238.947 449.534C238.784 449.839 238.702 450.209 238.702 450.642ZM249.601 455.665C248.795 455.665 248.1 455.493 247.518 455.148C246.939 454.8 246.492 454.312 246.176 453.684C245.863 453.051 245.707 452.311 245.707 451.462C245.707 450.624 245.863 449.886 246.176 449.246C246.492 448.607 246.932 448.108 247.497 447.75C248.065 447.391 248.729 447.212 249.489 447.212C249.951 447.212 250.398 447.288 250.831 447.441C251.265 447.593 251.653 447.833 251.998 448.16C252.342 448.487 252.614 448.911 252.813 449.433C253.012 449.951 253.111 450.582 253.111 451.324V451.888H246.607V450.695H251.55C251.55 450.276 251.465 449.905 251.295 449.582C251.124 449.255 250.885 448.998 250.576 448.81C250.27 448.621 249.912 448.527 249.5 448.527C249.052 448.527 248.662 448.637 248.328 448.858C247.998 449.074 247.742 449.358 247.561 449.71C247.383 450.058 247.294 450.436 247.294 450.844V451.777C247.294 452.324 247.39 452.789 247.582 453.172C247.777 453.556 248.049 453.849 248.397 454.051C248.745 454.25 249.152 454.349 249.617 454.349C249.919 454.349 250.194 454.307 250.442 454.222C250.691 454.133 250.906 454.001 251.087 453.827C251.268 453.653 251.407 453.439 251.502 453.183L253.01 453.455C252.889 453.898 252.673 454.287 252.36 454.621C252.051 454.951 251.662 455.209 251.194 455.393C250.728 455.575 250.197 455.665 249.601 455.665ZM254.878 455.5V447.318H256.418V448.618H256.503C256.652 448.178 256.915 447.831 257.291 447.579C257.671 447.324 258.101 447.196 258.58 447.196C258.68 447.196 258.797 447.199 258.932 447.206C259.07 447.213 259.179 447.222 259.257 447.233V448.756C259.193 448.739 259.079 448.719 258.916 448.698C258.753 448.673 258.589 448.661 258.426 448.661C258.049 448.661 257.714 448.74 257.419 448.9C257.128 449.056 256.897 449.275 256.727 449.555C256.556 449.832 256.471 450.148 256.471 450.504V455.5H254.878ZM262.943 455.681C262.424 455.681 261.956 455.585 261.537 455.393C261.118 455.198 260.786 454.916 260.541 454.547C260.299 454.177 260.178 453.724 260.178 453.188C260.178 452.727 260.267 452.347 260.445 452.048C260.622 451.75 260.862 451.514 261.164 451.34C261.466 451.166 261.803 451.034 262.176 450.946C262.549 450.857 262.929 450.789 263.316 450.743C263.806 450.686 264.204 450.64 264.509 450.605C264.814 450.566 265.036 450.504 265.175 450.418C265.313 450.333 265.383 450.195 265.383 450.003V449.966C265.383 449.5 265.251 449.14 264.988 448.884C264.729 448.629 264.342 448.501 263.827 448.501C263.291 448.501 262.868 448.62 262.559 448.858C262.254 449.092 262.043 449.353 261.926 449.641L260.429 449.3C260.606 448.803 260.866 448.401 261.206 448.096C261.551 447.787 261.947 447.563 262.394 447.425C262.842 447.283 263.312 447.212 263.806 447.212C264.133 447.212 264.479 447.251 264.845 447.329C265.214 447.403 265.558 447.542 265.878 447.744C266.201 447.947 266.466 448.236 266.672 448.613C266.878 448.985 266.981 449.47 266.981 450.067V455.5H265.425V454.381H265.361C265.258 454.587 265.104 454.79 264.898 454.989C264.692 455.187 264.427 455.353 264.104 455.484C263.781 455.615 263.394 455.681 262.943 455.681ZM263.289 454.403C263.729 454.403 264.106 454.316 264.418 454.142C264.734 453.968 264.974 453.74 265.138 453.46C265.304 453.176 265.388 452.872 265.388 452.549V451.494C265.331 451.551 265.221 451.604 265.058 451.654C264.898 451.7 264.715 451.741 264.509 451.777C264.303 451.809 264.102 451.839 263.907 451.867C263.712 451.892 263.548 451.913 263.417 451.931C263.108 451.97 262.826 452.036 262.57 452.128C262.318 452.221 262.116 452.354 261.963 452.528C261.814 452.698 261.739 452.925 261.739 453.21C261.739 453.604 261.885 453.902 262.176 454.104C262.467 454.303 262.838 454.403 263.289 454.403ZM272.921 447.318V448.597H268.452V447.318H272.921ZM269.651 445.358H271.243V453.098C271.243 453.407 271.289 453.639 271.382 453.795C271.474 453.948 271.593 454.053 271.739 454.11C271.888 454.163 272.049 454.19 272.223 454.19C272.351 454.19 272.463 454.181 272.559 454.163C272.655 454.145 272.729 454.131 272.783 454.12L273.07 455.436C272.978 455.472 272.847 455.507 272.676 455.543C272.506 455.582 272.293 455.603 272.037 455.607C271.618 455.614 271.227 455.539 270.865 455.383C270.503 455.227 270.21 454.985 269.986 454.658C269.762 454.332 269.651 453.922 269.651 453.428V445.358ZM278.121 455.665C277.315 455.665 276.621 455.493 276.039 455.148C275.46 454.8 275.012 454.312 274.696 453.684C274.384 453.051 274.228 452.311 274.228 451.462C274.228 450.624 274.384 449.886 274.696 449.246C275.012 448.607 275.453 448.108 276.017 447.75C276.585 447.391 277.25 447.212 278.009 447.212C278.471 447.212 278.919 447.288 279.352 447.441C279.785 447.593 280.174 447.833 280.518 448.16C280.863 448.487 281.134 448.911 281.333 449.433C281.532 449.951 281.632 450.582 281.632 451.324V451.888H275.128V450.695H280.071C280.071 450.276 279.986 449.905 279.815 449.582C279.645 449.255 279.405 448.998 279.096 448.81C278.791 448.621 278.432 448.527 278.02 448.527C277.573 448.527 277.182 448.637 276.848 448.858C276.518 449.074 276.262 449.358 276.081 449.71C275.904 450.058 275.815 450.436 275.815 450.844V451.777C275.815 452.324 275.911 452.789 276.103 453.172C276.298 453.556 276.57 453.849 276.918 454.051C277.266 454.25 277.672 454.349 278.137 454.349C278.439 454.349 278.714 454.307 278.963 454.222C279.212 454.133 279.426 454.001 279.608 453.827C279.789 453.653 279.927 453.439 280.023 453.183L281.53 453.455C281.41 453.898 281.193 454.287 280.881 454.621C280.572 454.951 280.183 455.209 279.714 455.393C279.249 455.575 278.718 455.665 278.121 455.665Z" fill="white"/>
</g>
<defs>
<filter id="filter0_d_16_133" x="323" y="17" width="258" height="307" filterUnits="userSpaceOnUse" color-interpolation-filters="sRGB">
<feFlood flood-opacity="0" result="BackgroundImageFix"/>
<feColorMatrix in="SourceAlpha" type="matrix" values="0 0 0 0 0 0 0 0 0 0 0 0 0 0 0 0 0 0 127 0" result="hardAlpha"/>
<feOffset/>
<feGaussianBlur stdDeviation="8"/>
<feComposite in2="hardAlpha" operator="out"/>
<feColorMatrix type="matrix" values="0 0 0 0 0 0 0 0 0 0 0 0 0 0 0 0 0 0 0.16 0"/>
<feBlend mode="normal" in2="BackgroundImageFix" result="effect1_dropShadow_16_133"/>
<feBlend mode="normal" in="SourceGraphic" in2="effect1_dropShadow_16_133" result="shape"/>
</filter>
<filter id="filter1_d_16_133" x="8" y="159" width="323" height="343" filterUnits="userSpaceOnUse" color-interpolation-filters="sRGB">
<feFlood flood-opacity="0" result="BackgroundImageFix"/>
<feColorMatrix in="SourceAlpha" type="matrix" values="0 0 0 0 0 0 0 0 0 0 0 0 0 0 0 0 0 0 127 0" result="hardAlpha"/>
<feOffset/>
<feGaussianBlur stdDeviation="8"/>
<feComposite in2="hardAlpha" operator="out"/>
<feColorMatrix type="matrix" values="0 0 0 0 0 0 0 0 0 0 0 0 0 0 0 0 0 0 0.16 0"/>
<feBlend mode="normal" in2="BackgroundImageFix" result="effect1_dropShadow_16_133"/>
<feBlend mode="normal" in="SourceGraphic" in2="effect1_dropShadow_16_133" result="shape"/>
</filter>
<clipPath id="clip0_16_133">
<rect width="588" height="510" fill="white"/>
</clipPath>
<clipPath id="clip1_16_133">
<rect width="50.8205" height="51.3339" fill="white" transform="translate(551.41 337.679) rotate(-120)"/>
</clipPath>
</defs>
</svg>
